<svg xmlns="http://www.w3.org/2000/svg" width="657.801" height="538.286" viewBox="0 0 657.801 538.286">
  <g id="home-study" transform="translate(-74.114)">
    <path id="Caminho_15" data-name="Caminho 15" d="M474.114,404.286v130h-325.7c-37.109,0-67.3-29.16-67.3-65s30.192-65,67.3-65Z" fill="#f2f2f2"/>
    <path id="Caminho_16" data-name="Caminho 16" d="M482.114,533.286a5,5,0,0,1-5,5h-334.5a68.5,68.5,0,0,1,0-137h334.5a5,5,0,1,1,0,10h-334.5a58.5,58.5,0,1,0,0,117h334.5a5,5,0,0,1,5,5Z" fill="#319795"/>
    <path id="Caminho_17" data-name="Caminho 17" d="M474.114,434.286h-350a1,1,0,0,1,0-2h350a1,1,0,0,1,0,2Z" fill="#ccc"/>
    <path id="Caminho_18" data-name="Caminho 18" d="M474.114,458.286h-350a1,1,0,0,1,0-2h350a1,1,0,0,1,0,2Z" fill="#ccc"/>
    <path id="Caminho_19" data-name="Caminho 19" d="M474.114,482.286h-350a1,1,0,0,1,0-2h350a1,1,0,0,1,0,2Z" fill="#ccc"/>
    <path id="Caminho_20" data-name="Caminho 20" d="M474.114,506.286h-350a1,1,0,0,1,0-2h350a1,1,0,0,1,0,2Z" fill="#ccc"/>
    <path id="Caminho_21" data-name="Caminho 21" d="M725.832,428.757,644.267,529.985,390.652,325.635c-28.9-23.283-34.111-64.932-11.624-92.84s64.292-31.671,93.188-8.388Z" fill="#f2f2f2"/>
    <path id="Caminho_22" data-name="Caminho 22" d="M651.124,534.226a5,5,0,0,1-7.031.756L383.625,325.11a68.5,68.5,0,1,1,85.956-106.679L730.05,428.3a5,5,0,1,1-6.274,7.787L463.307,226.218a58.5,58.5,0,1,0-73.408,91.1L650.367,527.2a5,5,0,0,1,.757,7.03Z" fill="#ccc"/>
    <path id="Caminho_23" data-name="Caminho 23" d="M707.009,452.117,434.471,232.52a1,1,0,0,1-.332-1.06.989.989,0,0,1,.181-.346,1,1,0,0,1,1.406-.151l272.538,219.6a1,1,0,0,1,.368.672,1,1,0,0,1-.216.735,1,1,0,0,1-1.407.15Z" fill="#ccc"/>
    <path id="Caminho_24" data-name="Caminho 24" d="M691.951,470.806l-272.538-219.6a1,1,0,0,1,1.255-1.557l272.538,219.6a1,1,0,0,1,.25.3,1,1,0,0,1,.083.761,1,1,0,0,1-.181.346,1,1,0,0,1-1.061.332A1.006,1.006,0,0,1,691.951,470.806Z" fill="#ccc"/>
    <path id="Caminho_25" data-name="Caminho 25" d="M676.893,489.494,404.355,269.9a1,1,0,0,1,1.255-1.558l272.538,219.6a1,1,0,0,1,.332,1.06,1.016,1.016,0,0,1-.181.346,1,1,0,0,1-1.406.151Z" fill="#ccc"/>
    <path id="Caminho_26" data-name="Caminho 26" d="M661.835,508.182,389.3,288.585a.99.99,0,0,1-.251-.3,1,1,0,0,1,1.16-1.439.985.985,0,0,1,.345.181l272.538,219.6a.99.99,0,0,1,.251.3,1.006,1.006,0,0,1,.083.762,1,1,0,0,1-.481.6.995.995,0,0,1-1.107-.1Z" fill="#ccc"/>
    <path id="Caminho_27" data-name="Caminho 27" d="M338.081,390.622H326.649l-5.437-44.1,16.873,0Z" fill="#ffb8b8"/>
    <path id="Caminho_28" data-name="Caminho 28" d="M318.482,387.355H340.53v13.881H304.6a13.88,13.88,0,0,1,13.882-13.881Z" fill="#2f2e41"/>
    <path id="Caminho_29" data-name="Caminho 29" d="M221.286,390.622H209.854l-5.437-44.1,16.873,0Z" fill="#ffb8b8"/>
    <path id="Caminho_30" data-name="Caminho 30" d="M201.688,387.355h22.048v13.881h-35.93a13.879,13.879,0,0,1,13.882-13.881Z" fill="#2f2e41"/>
    <path id="Caminho_31" data-name="Caminho 31" d="M259.471,63.533v-5a32.25,32.25,0,0,1,32.25-32.25h0a32.25,32.25,0,0,1,32.25,32.25v5a23.25,23.25,0,0,1-23.25,23.25h-18a23.251,23.251,0,0,1-23.25-23.25Z" fill="#2f2e41"/>
    <path id="Caminho_32" data-name="Caminho 32" d="M291.721,88.5A24.561,24.561,0,1,0,267.16,63.943,24.561,24.561,0,0,0,291.721,88.5Z" fill="#ffb8b8"/>
    <path id="Caminho_33" data-name="Caminho 33" d="M158.125,148.356a9.377,9.377,0,0,1,14.28,1.677l21.054-3.983L199,158.255l-29.812,5.207a9.428,9.428,0,0,1-11.063-15.106Z" fill="#ffb8b8"/>
    <path id="Caminho_34" data-name="Caminho 34" d="M272.573,103.971l.275.417-34.526,22.745-58.258,18.6a3.506,3.506,0,0,0-2.412,3.738l1.271,10.947a3.5,3.5,0,0,0,4.21,3.018l54.83-11.752a19.805,19.805,0,0,0,7.371-3.246l38.788-27.6a9.975,9.975,0,0,0-11.274-16.456Z" fill="#ccc"/>
    <path id="Caminho_35" data-name="Caminho 35" d="M326.853,378.109a4.517,4.517,0,0,1-4.137-2.7l-52.41-129.5a1.5,1.5,0,0,0-2.809.158L224.739,372.138a4.5,4.5,0,0,1-5.882,2.892l-14.338-5.377a4.488,4.488,0,0,1-2.9-3.705c-6.451-56.192,49.8-198.03,50.369-199.456l.157-.4,51.277,11.343.107.116c20.458,22.318,37.274,163.082,40.437,191.074A4.479,4.479,0,0,1,341,373.377l-12.657,4.476A4.459,4.459,0,0,1,326.853,378.109Z" fill="#2f2e41"/>
    <path id="Caminho_36" data-name="Caminho 36" d="M282.673,182.006c-12.424,0-26.275-2.477-30.538-12.7l-.1-.235.132-.218c3.365-5.521,7.813-14.94,5.422-16.708-4.709-3.482-6.994-9.21-6.791-17.026.44-16.965,12-32.028,28.766-37.482h0a127.67,127.67,0,0,1,14.263-3.672,24.282,24.282,0,0,1,20.133,4.972,24.523,24.523,0,0,1,9.1,18.871c.176,18.131-2.615,43.383-16.912,60.72a4.44,4.44,0,0,1-2.633,1.531A122.2,122.2,0,0,1,282.673,182.006Z" fill="#ccc"/>
    <path id="Caminho_37" data-name="Caminho 37" d="M278.051,181.327a9.555,9.555,0,0,1,11.679-6.664,9.344,9.344,0,0,1,1.447.536l15.987-14.549,11.118,7.49L295.42,188.371a9.54,9.54,0,0,1-10.813,4.587,9.394,9.394,0,0,1-6.556-11.631Z" fill="#ffb8b8"/>
    <path id="Caminho_38" data-name="Caminho 38" d="M304.632,181.511a4.487,4.487,0,0,1-2.846-1.015l-6.3-5.151a4.5,4.5,0,0,1,.109-7.056l26.442-20.279a1.5,1.5,0,0,0,.283-2.1L306,124.339a13.305,13.305,0,0,1,18.775-18.545l.1.109,17.042,24.4a15.192,15.192,0,0,1-.36,24.185L307.31,180.629A4.5,4.5,0,0,1,304.632,181.511Z" fill="#ccc"/>
    <path id="Caminho_39" data-name="Caminho 39" d="M269.965,57.033V44.847l21.756-9.5,20.744,9.5V57.033a2,2,0,0,1-2,2h-38.5a2,2,0,0,1-2-2Z" fill="#2f2e41"/>
    <path id="Caminho_40" data-name="Caminho 40" d="M290.722,27.9c-3.2-10.239,3.519-21.972,13.451-26.025s21.813-1.22,30.194,5.476S347.946,24.075,350.7,34.442s3.278,21.177,3.787,31.891c12.2,2.241,20.5,16.714,16.275,28.378s-19.872,17.459-30.677,11.363-13.935-22.485-6.137-32.134a26.374,26.374,0,0,0-30.687-40.91C297.248,35.545,289.7,29.011,290.722,27.9Z" fill="#2f2e41"/>
    <path id="Caminho_41" data-name="Caminho 41" d="M153.614,101.083a104.451,104.451,0,0,1-42.348-9.275,4.473,4.473,0,0,1-2.652-4.1V51.286a4.506,4.506,0,0,1,4.5-4.5h81a4.5,4.5,0,0,1,4.5,4.5V87.7a4.473,4.473,0,0,1-2.652,4.1A104.449,104.449,0,0,1,153.614,101.083Z" fill="#319795"/>
    <path id="Caminho_42" data-name="Caminho 42" d="M153.6,71.58a4.51,4.51,0,0,1-1.749-.352l-64.232-27.1a4.5,4.5,0,0,1,.153-8.353l64.232-24.368a4.485,4.485,0,0,1,3.212.007l63.372,24.368a4.5,4.5,0,0,1,.154,8.338l-63.373,27.1A4.511,4.511,0,0,1,153.6,71.58Z" fill="#319795"/>
    <path id="Caminho_43" data-name="Caminho 43" d="M116.114,94.286a6,6,0,1,0-6-6A6,6,0,0,0,116.114,94.286Z" fill="#3f3d56"/>
    <path id="Caminho_44" data-name="Caminho 44" d="M218.965,40.274l-63.373,27.1a4,4,0,0,1-3.128.007l-64.232-27.1A3.925,3.925,0,0,1,86.32,38.6a4,4,0,0,0,1.913,5.681l64.232,27.1a4,4,0,0,0,3.128-.007l63.373-27.1a4,4,0,0,0,1.894-5.673A3.929,3.929,0,0,1,218.965,40.274Z" opacity="0.2"/>
    <path id="Caminho_45" data-name="Caminho 45" d="M116.618,88.262a1,1,0,0,0,1-1V53.8L150.6,41.786a1,1,0,0,0,.029-2L117.648,51.8a1.959,1.959,0,0,0-1.433.575,1.983,1.983,0,0,0-.6,1.425V87.262a1,1,0,0,0,1,1Z" fill="#3f3d56"/>
  </g>
</svg>
