<svg xmlns="http://www.w3.org/2000/svg" xmlns:xlink="http://www.w3.org/1999/xlink" width="305.244" height="100" viewBox="0 0 305.244 100">
  <defs>
    <clipPath id="clip-path">
      <rect id="Retângulo_11" data-name="Retângulo 11" width="100" height="100" transform="translate(0 17)" fill="#fff"/>
    </clipPath>
  </defs>
  <g id="light-logo" transform="translate(0 -17)">
    <g id="Grupo_5" data-name="Grupo 5" clip-path="url(#clip-path)">
      <path id="Caminho_46" data-name="Caminho 46" d="M82.227,50.125V72.859c0,9.493-16.583,14.648-32.227,14.648S17.773,82.352,17.773,72.859V50.125A2.938,2.938,0,0,1,20.7,47.2H79.3A2.938,2.938,0,0,1,82.227,50.125Z" fill="#373737"/>
      <path id="Caminho_47" data-name="Caminho 47" d="M82.227,50.125V72.859c0,9.493-16.583,14.648-32.227,14.648V47.2H79.3A2.938,2.938,0,0,1,82.227,50.125Z" fill="#595959"/>
      <path id="Caminho_48" data-name="Caminho 48" d="M100,43.563a2.934,2.934,0,0,1-1.875,2.753L51.054,63.894a3.243,3.243,0,0,1-2.109,0L1.875,46.316V40.808L48.946,23.23a3.255,3.255,0,0,1,2.109,0l47.07,17.578A2.936,2.936,0,0,1,100,43.563Z" fill="#484848"/>
      <path id="Caminho_49" data-name="Caminho 49" d="M100,43.563a2.934,2.934,0,0,1-1.875,2.753L51.054,63.894A3.3,3.3,0,0,1,50,64.07V23.055a3.323,3.323,0,0,1,1.054.175l47.07,17.578A2.936,2.936,0,0,1,100,43.563Z" fill="#4a4a4a"/>
      <path id="Caminho_50" data-name="Caminho 50" d="M52.93,43.563A2.9,2.9,0,0,1,50,46.492H5.859V89.968l5.683,17.11a2.909,2.909,0,1,1-5.507,1.875l-.176-.527a3.014,3.014,0,0,1-2.93,2.519A2.9,2.9,0,0,1,0,108.016V43.563a2.9,2.9,0,0,1,2.93-2.93H50A2.9,2.9,0,0,1,52.93,43.563Z" fill="#de9e53"/>
    </g>
    <path id="Caminho_51" data-name="Caminho 51" d="M118.477,49.92v8.4h11.28v5.328h-11.28v8.88H131.2V78h-19.44V44.448H131.2V49.92Zm29,28.512a14.273,14.273,0,0,1-5.856-1.152,10.743,10.743,0,0,1-4.128-3.216,8.183,8.183,0,0,1-1.632-4.464h6.768a3.713,3.713,0,0,0,1.488,2.544,5.363,5.363,0,0,0,3.312,1.008,4.991,4.991,0,0,0,2.976-.768,2.313,2.313,0,0,0,1.1-1.968,2.03,2.03,0,0,0-1.344-1.92,22.293,22.293,0,0,0-4.176-1.44,36.784,36.784,0,0,1-4.9-1.488,8.7,8.7,0,0,1-3.264-2.352,6.387,6.387,0,0,1-1.344-4.272,6.985,6.985,0,0,1,1.248-4.032,8.737,8.737,0,0,1,3.648-2.88A13.847,13.847,0,0,1,147,50.976a11.342,11.342,0,0,1,7.584,2.4,8.722,8.722,0,0,1,3.12,6.384h-6.432a3.374,3.374,0,0,0-1.344-2.5,4.723,4.723,0,0,0-3.12-.96,5.077,5.077,0,0,0-2.832.672,2.157,2.157,0,0,0-.96,1.872,2.248,2.248,0,0,0,1.344,2.064,22.252,22.252,0,0,0,4.176,1.392,35.447,35.447,0,0,1,4.752,1.488,8.111,8.111,0,0,1,3.216,2.4,6.352,6.352,0,0,1,1.44,4.224,6.953,6.953,0,0,1-1.3,4.128A8.351,8.351,0,0,1,153,77.424,13.933,13.933,0,0,1,147.48,78.432Zm23.8-21.5V69.792a2.69,2.69,0,0,0,.624,1.968,3.382,3.382,0,0,0,2.208.576h3.12V78h-4.224q-8.5,0-8.5-8.256V56.928h-3.168v-5.52h3.168V44.832h6.768v6.576h5.952v5.52Zm35.89-5.52V78h-6.768V74.64A9.036,9.036,0,0,1,197,77.376a10.566,10.566,0,0,1-4.512.96,11.435,11.435,0,0,1-5.52-1.3,9.65,9.65,0,0,1-3.792-3.888,13.184,13.184,0,0,1-1.344-6.144v-15.6h6.72v14.64a6.986,6.986,0,0,0,1.584,4.9,5.652,5.652,0,0,0,4.32,1.68,5.713,5.713,0,0,0,4.368-1.68,6.986,6.986,0,0,0,1.584-4.9V51.408Zm4.9,13.2a15.584,15.584,0,0,1,1.584-7.152,11.892,11.892,0,0,1,4.416-4.8,11.753,11.753,0,0,1,6.192-1.68,11.1,11.1,0,0,1,4.944,1.152,9.685,9.685,0,0,1,3.744,2.976V42.48h6.816V78h-6.816V74.064a9.107,9.107,0,0,1-3.5,3.168,10.977,10.977,0,0,1-5.232,1.2,11.421,11.421,0,0,1-6.144-1.728,12.238,12.238,0,0,1-4.416-4.848A15.993,15.993,0,0,1,212.076,64.608ZM233,64.7a8.48,8.48,0,0,0-.96-4.176,6.568,6.568,0,0,0-2.592-2.688,6.938,6.938,0,0,0-6.96-.048A6.994,6.994,0,0,0,219.9,60.48a8.375,8.375,0,0,0-.96,4.128,8.938,8.938,0,0,0,.96,4.224,7.37,7.37,0,0,0,2.592,2.736,6.71,6.71,0,0,0,3.456.96,7.069,7.069,0,0,0,3.5-.912,6.983,6.983,0,0,0,2.592-2.688A8.76,8.76,0,0,0,233,64.7Zm11.6-.1a15.584,15.584,0,0,1,1.584-7.152,12.01,12.01,0,0,1,4.368-4.8,11.753,11.753,0,0,1,6.192-1.68,10.694,10.694,0,0,1,5.184,1.2,10.507,10.507,0,0,1,3.6,3.024V51.408H272.3V78h-6.768V74.112a10.155,10.155,0,0,1-3.6,3.12,10.977,10.977,0,0,1-5.232,1.2,11.421,11.421,0,0,1-6.144-1.728,12.366,12.366,0,0,1-4.368-4.848A15.993,15.993,0,0,1,244.607,64.608Zm20.928.1a8.48,8.48,0,0,0-.96-4.176,6.568,6.568,0,0,0-2.592-2.688,6.938,6.938,0,0,0-6.96-.048,6.994,6.994,0,0,0-2.592,2.688,8.375,8.375,0,0,0-.96,4.128,8.938,8.938,0,0,0,.96,4.224,7.369,7.369,0,0,0,2.592,2.736,6.71,6.71,0,0,0,3.456.96,7.069,7.069,0,0,0,3.5-.912,6.983,6.983,0,0,0,2.592-2.688A8.76,8.76,0,0,0,265.535,64.7Z" fill="#cbd5e0"/>
    <path id="Caminho_52" data-name="Caminho 52" d="M305.244,38.84h-9.072v9.312h-6.336V38.84h-9.072V32.984h9.072V23.672h6.336v9.312h9.072Z" fill="#cbd5e0"/>
  </g>
</svg>
