<svg xmlns="http://www.w3.org/2000/svg" xmlns:xlink="http://www.w3.org/1999/xlink" width="227.274" height="72.973" viewBox="0 0 227.274 72.973">
  <defs>
    <clipPath id="clip-path">
      <rect id="Rectangle_15" data-name="Rectangle 15" width="70.062" height="72.973" transform="translate(0 14.027)" fill="#fff"/>
    </clipPath>
  </defs>
  <g id="Group_24" data-name="Group 24" transform="translate(0 -14.027)">
    <path id="Path_24" data-name="Path 24" d="M99.358,37.94v6.3h8.46v4h-8.46V54.9h9.54V59H94.318V33.836H108.9v4.1ZM121.11,59.324a10.7,10.7,0,0,1-4.392-.864,8.057,8.057,0,0,1-3.1-2.412A6.138,6.138,0,0,1,112.4,52.7h5.076a2.785,2.785,0,0,0,1.116,1.908,4.022,4.022,0,0,0,2.484.756,3.743,3.743,0,0,0,2.232-.576,1.734,1.734,0,0,0,.828-1.476,1.523,1.523,0,0,0-1.008-1.44,16.72,16.72,0,0,0-3.132-1.08,27.586,27.586,0,0,1-3.672-1.116,6.527,6.527,0,0,1-2.448-1.764,4.79,4.79,0,0,1-1.008-3.2,5.239,5.239,0,0,1,.936-3.024,6.553,6.553,0,0,1,2.736-2.16,10.385,10.385,0,0,1,4.212-.792,8.507,8.507,0,0,1,5.688,1.8,6.542,6.542,0,0,1,2.34,4.788h-4.824a2.531,2.531,0,0,0-1.008-1.872,3.542,3.542,0,0,0-2.34-.72,3.807,3.807,0,0,0-2.124.5,1.618,1.618,0,0,0-.72,1.4,1.686,1.686,0,0,0,1.008,1.548,16.69,16.69,0,0,0,3.132,1.044,26.585,26.585,0,0,1,3.564,1.116,6.083,6.083,0,0,1,2.412,1.8,4.764,4.764,0,0,1,1.08,3.168,5.215,5.215,0,0,1-.972,3.1,6.264,6.264,0,0,1-2.736,2.16A10.449,10.449,0,0,1,121.11,59.324ZM138.963,43.2v9.648a2.017,2.017,0,0,0,.468,1.476,2.536,2.536,0,0,0,1.656.432h2.34V59h-3.168q-6.372,0-6.372-6.192V43.2h-2.376v-4.14h2.376V34.124h5.076v4.932h4.464V43.2Zm26.917-4.14V59H160.8V56.48a6.777,6.777,0,0,1-2.556,2.052,7.925,7.925,0,0,1-3.384.72,8.576,8.576,0,0,1-4.14-.972,7.238,7.238,0,0,1-2.844-2.916,9.888,9.888,0,0,1-1.008-4.608v-11.7h5.04v10.98a5.239,5.239,0,0,0,1.188,3.672,4.239,4.239,0,0,0,3.24,1.26,4.285,4.285,0,0,0,3.276-1.26,5.239,5.239,0,0,0,1.188-3.672V39.056Zm3.677,9.9a11.688,11.688,0,0,1,1.188-5.364,8.919,8.919,0,0,1,3.312-3.6,8.815,8.815,0,0,1,4.644-1.26,8.325,8.325,0,0,1,3.708.864,7.263,7.263,0,0,1,2.808,2.232V32.36h5.112V59h-5.112V56.048a6.83,6.83,0,0,1-2.628,2.376,8.233,8.233,0,0,1-3.924.9,8.566,8.566,0,0,1-4.608-1.3,9.179,9.179,0,0,1-3.312-3.636A12,12,0,0,1,169.557,48.956Zm15.7.072a6.36,6.36,0,0,0-.72-3.132,4.926,4.926,0,0,0-1.944-2.016,5.2,5.2,0,0,0-5.22-.036,5.245,5.245,0,0,0-1.944,2.016,6.281,6.281,0,0,0-.72,3.1,6.7,6.7,0,0,0,.72,3.168,5.527,5.527,0,0,0,1.944,2.052,5.032,5.032,0,0,0,2.592.72,5.3,5.3,0,0,0,2.628-.684,5.237,5.237,0,0,0,1.944-2.016A6.57,6.57,0,0,0,185.253,49.028Zm8.7-.072a11.688,11.688,0,0,1,1.188-5.364,9.007,9.007,0,0,1,3.276-3.6,8.815,8.815,0,0,1,4.644-1.26,8.021,8.021,0,0,1,3.888.9,7.88,7.88,0,0,1,2.7,2.268V39.056h5.076V59h-5.076V56.084a7.616,7.616,0,0,1-2.7,2.34,8.232,8.232,0,0,1-3.924.9,8.566,8.566,0,0,1-4.608-1.3,9.274,9.274,0,0,1-3.276-3.636A12,12,0,0,1,193.956,48.956Zm15.7.072a6.36,6.36,0,0,0-.72-3.132,4.926,4.926,0,0,0-1.944-2.016,5.2,5.2,0,0,0-5.22-.036,5.245,5.245,0,0,0-1.944,2.016,6.281,6.281,0,0,0-.72,3.1,6.7,6.7,0,0,0,.72,3.168,5.527,5.527,0,0,0,1.944,2.052,5.032,5.032,0,0,0,2.592.72,5.3,5.3,0,0,0,2.628-.684,5.237,5.237,0,0,0,1.944-2.016A6.57,6.57,0,0,0,209.652,49.028Z" transform="translate(-16 4.185)" fill="#4a4a4a"/>
    <path id="Path_25" data-name="Path 25" d="M248.274,29.38h-6.8v6.984h-4.752V29.38h-6.8V24.988h6.8V18h4.752v6.984h6.8Z" transform="translate(-21 3)" fill="#4a4a4a"/>
    <g id="Group_23" data-name="Group 23" clip-path="url(#clip-path)">
      <path id="Path_26" data-name="Path 26" d="M57.609,38.2v16.59c0,6.927-11.618,10.689-22.578,10.689S12.452,61.716,12.452,54.789V38.2A2.1,2.1,0,0,1,14.5,36.062H55.556A2.1,2.1,0,0,1,57.609,38.2Z" fill="#373737"/>
      <path id="Path_27" data-name="Path 27" d="M57.609,38.2v16.59c0,6.927-11.618,10.689-22.578,10.689V36.062H55.557A2.1,2.1,0,0,1,57.609,38.2Z" fill="#595959"/>
      <path id="Path_28" data-name="Path 28" d="M70.062,33.41a2.141,2.141,0,0,1-1.314,2.009L35.77,48.247a2.186,2.186,0,0,1-1.478,0L1.314,35.42V31.4L34.292,18.573a2.194,2.194,0,0,1,1.478,0L68.748,31.4A2.143,2.143,0,0,1,70.062,33.41Z" fill="#484848"/>
      <path id="Path_29" data-name="Path 29" d="M70.062,33.41a2.141,2.141,0,0,1-1.314,2.009L35.77,48.247a2.23,2.23,0,0,1-.739.129V18.445a2.245,2.245,0,0,1,.739.128L68.748,31.4A2.143,2.143,0,0,1,70.062,33.41Z" fill="#4a4a4a"/>
      <path id="Path_30" data-name="Path 30" d="M37.083,33.41a2.076,2.076,0,0,1-2.053,2.138H4.105V67.274L8.087,79.76a2.122,2.122,0,0,1-1.272,2.694,1.984,1.984,0,0,1-2.586-1.326l-.123-.384a2.14,2.14,0,0,1-2.053,1.838A2.076,2.076,0,0,1,0,80.444V33.41a2.076,2.076,0,0,1,2.053-2.138H35.031A2.076,2.076,0,0,1,37.083,33.41Z" fill="#de9e53"/>
    </g>
  </g>
</svg>
