<svg id="Grupo_2" data-name="Grupo 2" xmlns="http://www.w3.org/2000/svg" width="500" height="500" viewBox="0 0 500 500">
  <g id="Grupo_1" data-name="Grupo 1" opacity="0.5">
    <path id="Caminho_1" data-name="Caminho 1" d="M250,500c138.071,0,250-111.929,250-250S388.071,0,250,0,0,111.929,0,250,111.929,500,250,500Z" fill="#fff" opacity="0.5"/>
  </g>
  <path id="Caminho_2" data-name="Caminho 2" d="M250.716,494.1a243.551,243.551,0,0,0,134.52-40.257c-9.018-49.284-43.338-52.092-43.338-52.092H152.643s-32.385,2.657-42.5,47.994A243.6,243.6,0,0,0,250.716,494.1Z" fill="#2b2b2b"/>
  <path id="Caminho_3" data-name="Caminho 3" d="M248.121,361.368A118.123,118.123,0,1,0,130,243.245,118.123,118.123,0,0,0,248.121,361.368Z" fill="#333"/>
  <path id="Caminho_4" data-name="Caminho 4" d="M210,341.633h75.687v60.552a37.845,37.845,0,0,1-37.829,37.844h0a37.845,37.845,0,0,1-37.844-37.844V341.633Z" opacity="0.1"/>
  <path id="Caminho_5" data-name="Caminho 5" d="M212.389,338.825h70.917a2.4,2.4,0,0,1,2.4,2.4v58.152a37.843,37.843,0,0,1-37.858,37.851h0A37.843,37.843,0,0,1,210,399.384V341.225a2.4,2.4,0,0,1,2.385-2.4Z" fill="#fdb797"/>
  <path id="Caminho_6" data-name="Caminho 6" d="M210.133,370.215a108.931,108.931,0,0,0,75.687.208V361.11H210.133Z" opacity="0.1"/>
  <path id="Caminho_7" data-name="Caminho 7" d="M248.116,375.279A108.488,108.488,0,1,0,139.627,266.791,108.488,108.488,0,0,0,248.116,375.279Z" fill="#fdb797"/>
  <path id="Caminho_8" data-name="Caminho 8" d="M170.841,168.109s45.723,92.808,174.7,38.911l-30.029-47.084-53.23-19.105Z" opacity="0.1"/>
  <path id="Caminho_9" data-name="Caminho 9" d="M170.841,166.748s45.723,92.808,174.7,38.9L315.511,158.56l-53.23-19.1Z" fill="#333"/>
  <path id="Caminho_10" data-name="Caminho 10" d="M170.442,160.458a62.67,62.67,0,0,1,15.537-25.265c21.339-21.1,56.325-25.544,74.269-49.6,4.3,6.676.974,16.942-6.447,19.807,17.192-.115,37.113-1.619,46.834-15.759a32.157,32.157,0,0,1-5.423,33.954c15.237.716,31.519,11.031,32.479,26.253.659,10.144-5.731,19.743-14.033,25.559s-18.417,8.489-28.338,10.674C256.351,192.478,151.538,219.248,170.442,160.458Z" fill="#333"/>
  <path id="Caminho_11" data-name="Caminho 11" d="M139.588,285.616c5.574,0,10.093-8.473,10.093-18.925s-4.519-18.926-10.093-18.926-10.093,8.473-10.093,18.926S134.013,285.616,139.588,285.616Z" fill="#fdb797"/>
  <path id="Caminho_12" data-name="Caminho 12" d="M356.593,285.616c5.574,0,10.093-8.473,10.093-18.925s-4.519-18.926-10.093-18.926S346.5,256.238,346.5,266.691,351.019,285.616,356.593,285.616Z" fill="#fdb797"/>
</svg>
