<svg xmlns="http://www.w3.org/2000/svg" xmlns:xlink="http://www.w3.org/1999/xlink" width="700" height="490" viewBox="0 0 700 490">
  <defs>
    <clipPath id="clip-path">
      <rect id="Retângulo_26" data-name="Retângulo 26" width="700" height="490" fill="#fff"/>
    </clipPath>
  </defs>
  <g id="register-home" clip-path="url(#clip-path)">
    <path id="Caminho_328" data-name="Caminho 328" d="M395.941,66.712c-44.87.061-88.058-12.836-129.368-27.163S184.272,9.178,140.238,2.38c-28.32-4.37-60.524-3.968-82.662,11.9C36.267,29.543,30.1,54.807,27.119,78.148c-2.239,17.559-3.271,35.988,5.114,52.05,5.822,11.15,15.787,20.34,22.81,30.967,24.514,36.968,9.772,84.191-14.052,122.017C29.821,300.93,16.735,317.941,8.289,336.7s-11.909,40.042-3.3,58.562C13.53,413.623,32.81,426.946,53.5,436.045c42.018,18.515,90.938,22.483,138.545,24.011,105.381,3.39,210.966-3.524,316.268-10.438,38.969-2.557,78.112-5.131,116.276-12.538,21.189-4.108,43.008-10.207,58.033-23.572,19.07-16.969,22.971-44.674,9.093-64.588-23.271-33.4-84.636-39.7-101.323-75.841-9.2-19.9-1.266-42.713,10.421-61.891,25.066-41.15,68.213-78.008,68.939-124.033.5-31.606-21.939-62.439-55.451-76.176C579.175-3.408,531.28.292,506.67,27.108,481.363,54.734,435.557,66.669,395.941,66.712Z" fill="#171923" opacity="0.1"/>
    <path id="Caminho_329" data-name="Caminho 329" d="M623.906,51.873H47.132A5.1,5.1,0,0,0,43.5,53.4a5.247,5.247,0,0,0-1.5,3.684V72.262h587.05V57.083a5.25,5.25,0,0,0-1.505-3.684,5.1,5.1,0,0,0-3.633-1.526Z" fill="#3f3d56"/>
    <path id="Caminho_330" data-name="Caminho 330" d="M41.994,72.262V413.848a10.58,10.58,0,0,0,3.035,7.429,10.288,10.288,0,0,0,7.326,3.076H618.683a10.288,10.288,0,0,0,7.326-3.076,10.58,10.58,0,0,0,3.035-7.429V72.262Z" fill="#fff"/>
    <path id="Caminho_331" data-name="Caminho 331" d="M51.292,64.35a2.435,2.435,0,1,0-2.4-2.434A2.418,2.418,0,0,0,51.292,64.35Z" fill="#fa5959" opacity="0.8"/>
    <path id="Caminho_332" data-name="Caminho 332" d="M57.895,64.35a2.435,2.435,0,1,0-2.4-2.434A2.418,2.418,0,0,0,57.895,64.35Z" fill="#fed253" opacity="0.8"/>
    <path id="Caminho_333" data-name="Caminho 333" d="M64.5,64.35a2.435,2.435,0,1,0-2.4-2.434A2.418,2.418,0,0,0,64.5,64.35Z" fill="#8ccf4d" opacity="0.8"/>
    <path id="Caminho_334" data-name="Caminho 334" d="M568.364,129.218H96.563V339.572h471.8Z" opacity="0.05"/>
    <path id="Caminho_335" data-name="Caminho 335" d="M564.762,130.812h-464.6V336.528h464.6Z" fill="#3f3d56"/>
    <path id="Caminho_336" data-name="Caminho 336" d="M226.819,183.757a45.766,45.766,0,0,0-25.679,7.9,46.733,46.733,0,0,0-17.023,21.032,47.343,47.343,0,0,0,10.019,51.072,45.873,45.873,0,0,0,71.113-7.1,47.306,47.306,0,0,0-5.748-59.175,46.175,46.175,0,0,0-15-10.159,45.672,45.672,0,0,0-17.687-3.567Zm8.289,47.99v22.191H218.769V231.747a13.727,13.727,0,0,1-4.764-6.894,13.91,13.91,0,0,1,.1-8.418,13.717,13.717,0,0,1,4.929-6.774,13.388,13.388,0,0,1,15.805,0,13.711,13.711,0,0,1,4.929,6.774,13.9,13.9,0,0,1,.1,8.418,13.721,13.721,0,0,1-4.764,6.894Z" fill="#171923"/>
    <path id="Caminho_337" data-name="Caminho 337" d="M226.819,183.757a45.766,45.766,0,0,0-25.679,7.9,46.733,46.733,0,0,0-17.023,21.032,47.343,47.343,0,0,0,10.019,51.072,45.873,45.873,0,0,0,71.113-7.1,47.306,47.306,0,0,0-5.748-59.175,46.175,46.175,0,0,0-15-10.159,45.672,45.672,0,0,0-17.687-3.567Zm8.289,47.99v22.191H218.769V231.747a13.727,13.727,0,0,1-4.764-6.894,13.91,13.91,0,0,1,.1-8.418,13.717,13.717,0,0,1,4.929-6.774,13.388,13.388,0,0,1,15.805,0,13.711,13.711,0,0,1,4.929,6.774,13.9,13.9,0,0,1,.1,8.418,13.721,13.721,0,0,1-4.764,6.894Z" opacity="0.05"/>
    <path id="Caminho_338" data-name="Caminho 338" d="M226.819,170.367A58.842,58.842,0,0,0,193.8,180.522a60.075,60.075,0,0,0-21.887,27.041A60.866,60.866,0,0,0,184.8,273.227a58.977,58.977,0,0,0,91.43-9.13,60.895,60.895,0,0,0-7.39-76.082,59.015,59.015,0,0,0-42.02-17.648Zm10.654,61.7V260.6H216.464V232.07a17.661,17.661,0,0,1-6.128-8.866,17.885,17.885,0,0,1,.131-10.826,17.628,17.628,0,0,1,6.339-8.712,17.211,17.211,0,0,1,20.326,0,17.634,17.634,0,0,1,6.339,8.712,17.885,17.885,0,0,1,.13,10.826,17.655,17.655,0,0,1-6.128,8.866Z" fill="#171923"/>
    <path id="Caminho_339" data-name="Caminho 339" d="M502.936,222.715H310.854v20.693H502.936Z" fill="#fff"/>
    <path id="Caminho_340" data-name="Caminho 340" d="M502.936,260.45H461.518v20.693h41.418Z" fill="#171923"/>
    <path id="Caminho_341" data-name="Caminho 341" d="M329.762,232.751h-3.475l3.091-3.128a.314.314,0,0,0,0-.432.3.3,0,0,0-.426,0l-3.091,3.134v-3.53a.308.308,0,0,0-.088-.215.3.3,0,0,0-.212-.089.3.3,0,0,0-.211.091.315.315,0,0,0-.09.213v3.53l-3.085-3.152a.285.285,0,0,0-.1-.067.3.3,0,0,0-.23,0,.286.286,0,0,0-.1.067.314.314,0,0,0,0,.432l3.091,3.128h-3.481a.306.306,0,0,0-.213.52.3.3,0,0,0,.213.089h3.481l-3.091,3.134a.3.3,0,0,0,.426.432l3.085-3.134V237.3a.307.307,0,0,0,.088.215.3.3,0,0,0,.425,0,.307.307,0,0,0,.088-.215v-3.524l3.091,3.134a.3.3,0,0,0,.426-.432l-3.091-3.134h3.475a.3.3,0,0,0,.213-.089.308.308,0,0,0,.087-.216.3.3,0,0,0-.094-.2A.3.3,0,0,0,329.762,232.751Z" fill="#171923"/>
    <path id="Caminho_342" data-name="Caminho 342" d="M342.368,232.751h-3.476l3.092-3.128a.314.314,0,0,0,0-.432.3.3,0,0,0-.1-.067.3.3,0,0,0-.231,0,.311.311,0,0,0-.1.067l-3.091,3.134v-3.53a.308.308,0,0,0-.088-.215.3.3,0,0,0-.212-.089.307.307,0,0,0-.3.3v3.53l-3.085-3.152a.3.3,0,0,0-.1-.067.3.3,0,0,0-.231,0,.285.285,0,0,0-.1.067.314.314,0,0,0,0,.432l3.092,3.128h-3.482a.3.3,0,0,0-.21.091.315.315,0,0,0-.09.213.309.309,0,0,0,.088.216.3.3,0,0,0,.212.089h3.482l-3.092,3.134a.314.314,0,0,0,0,.432.308.308,0,0,0,.427,0l3.085-3.134V237.3a.3.3,0,0,0,.088.215.3.3,0,0,0,.424,0,.307.307,0,0,0,.088-.215v-3.524l3.091,3.134a.308.308,0,0,0,.427,0,.314.314,0,0,0,0-.432l-3.092-3.134h3.476a.3.3,0,0,0,.212-.089.286.286,0,0,0-.006-.419A.3.3,0,0,0,342.368,232.751Z" fill="#171923"/>
    <path id="Caminho_343" data-name="Caminho 343" d="M354.973,232.751H351.5l3.091-3.128a.314.314,0,0,0,0-.432.3.3,0,0,0-.426,0l-3.091,3.134v-3.53a.308.308,0,0,0-.088-.215.3.3,0,0,0-.213-.089.3.3,0,0,0-.21.091.315.315,0,0,0-.09.213v3.53l-3.085-3.152a.285.285,0,0,0-.1-.067.3.3,0,0,0-.115-.023.308.308,0,0,0-.116.023.291.291,0,0,0-.1.067.312.312,0,0,0,0,.432l3.091,3.128H346.57a.306.306,0,0,0-.213.52.3.3,0,0,0,.213.089h3.481l-3.091,3.134a.3.3,0,0,0,.426.432l3.085-3.134V237.3a.307.307,0,0,0,.088.215.3.3,0,0,0,.425,0,.307.307,0,0,0,.088-.215v-3.524l3.091,3.134a.307.307,0,0,0,.426,0,.314.314,0,0,0,0-.432l-3.091-3.134h3.475a.3.3,0,0,0,.212-.089.286.286,0,0,0-.006-.419A.3.3,0,0,0,354.973,232.751Z" fill="#171923"/>
    <path id="Caminho_344" data-name="Caminho 344" d="M367.578,232.751H364.1l3.091-3.128a.3.3,0,0,0-.213-.522.3.3,0,0,0-.213.09l-3.091,3.134v-3.53a.308.308,0,0,0-.088-.215.3.3,0,0,0-.212-.089.307.307,0,0,0-.3.3v3.53l-3.086-3.152a.291.291,0,0,0-.1-.067.308.308,0,0,0-.116-.023.3.3,0,0,0-.115.023.285.285,0,0,0-.1.067.314.314,0,0,0,0,.432l3.091,3.128h-3.481a.306.306,0,0,0-.212.52.3.3,0,0,0,.212.089h3.481l-3.091,3.134a.314.314,0,0,0,0,.432.307.307,0,0,0,.426,0l3.086-3.134V237.3a.306.306,0,0,0,.087.215.3.3,0,0,0,.425,0,.307.307,0,0,0,.088-.215v-3.524l3.091,3.134a.3.3,0,0,0,.426-.432l-3.091-3.134h3.475a.3.3,0,0,0,.213-.089.286.286,0,0,0-.006-.419A.3.3,0,0,0,367.578,232.751Z" fill="#171923"/>
    <path id="Caminho_345" data-name="Caminho 345" d="M380.184,232.751h-3.476l3.092-3.128a.314.314,0,0,0,0-.432.3.3,0,0,0-.1-.067.3.3,0,0,0-.231,0,.3.3,0,0,0-.1.067l-3.092,3.134v-3.53a.3.3,0,0,0-.088-.215.3.3,0,0,0-.212-.089.3.3,0,0,0-.21.091.315.315,0,0,0-.09.213v3.53l-3.085-3.152a.285.285,0,0,0-.1-.067.3.3,0,0,0-.231,0,.3.3,0,0,0-.1.067.314.314,0,0,0,0,.432l3.092,3.128H371.78a.3.3,0,0,0-.21.091.315.315,0,0,0-.09.213.309.309,0,0,0,.088.216.3.3,0,0,0,.212.089h3.482l-3.092,3.134a.314.314,0,0,0,0,.432.308.308,0,0,0,.427,0l3.085-3.134V237.3a.307.307,0,0,0,.088.215.3.3,0,0,0,.424,0,.3.3,0,0,0,.088-.215v-3.524l3.092,3.134a.307.307,0,0,0,.426,0,.314.314,0,0,0,0-.432l-3.092-3.134h3.476a.3.3,0,0,0,.212-.089.286.286,0,0,0-.006-.419A.3.3,0,0,0,380.184,232.751Z" fill="#171923"/>
    <path id="Caminho_346" data-name="Caminho 346" d="M392.789,232.751h-3.475l3.091-3.128a.314.314,0,0,0,0-.432.3.3,0,0,0-.213-.09.291.291,0,0,0-.213.09l-3.092,3.134v-3.53a.308.308,0,0,0-.087-.215.3.3,0,0,0-.213-.089.3.3,0,0,0-.21.091.315.315,0,0,0-.09.213v3.53l-3.085-3.152a.285.285,0,0,0-.1-.067.3.3,0,0,0-.115-.023.308.308,0,0,0-.116.023.291.291,0,0,0-.1.067.312.312,0,0,0,0,.432l3.091,3.128h-3.481a.3.3,0,0,0-.211.091.315.315,0,0,0-.09.213.309.309,0,0,0,.088.216.3.3,0,0,0,.213.089h3.481l-3.091,3.134a.3.3,0,0,0,.426.432l3.085-3.134V237.3a.307.307,0,0,0,.088.215.3.3,0,0,0,.425,0,.306.306,0,0,0,.087-.215v-3.524l3.092,3.134a.307.307,0,0,0,.426,0,.314.314,0,0,0,0-.432l-3.091-3.134h3.475a.3.3,0,0,0,.212-.089.286.286,0,0,0-.006-.419A.3.3,0,0,0,392.789,232.751Z" fill="#171923"/>
    <path id="Caminho_347" data-name="Caminho 347" d="M405.395,232.751h-3.476l3.091-3.128a.312.312,0,0,0,0-.432.3.3,0,0,0-.1-.067.3.3,0,0,0-.231,0,.3.3,0,0,0-.1.067l-3.091,3.134v-3.53a.308.308,0,0,0-.088-.215.3.3,0,0,0-.212-.089.307.307,0,0,0-.3.3v3.53l-3.086-3.152a.291.291,0,0,0-.1-.067.308.308,0,0,0-.116-.023.3.3,0,0,0-.115.023.285.285,0,0,0-.1.067.314.314,0,0,0,0,.432l3.092,3.128h-3.482a.306.306,0,0,0-.211.091.314.314,0,0,0-.089.213.309.309,0,0,0,.088.216.3.3,0,0,0,.212.089h3.482l-3.092,3.134a.314.314,0,0,0,0,.432.307.307,0,0,0,.426,0l3.086-3.134V237.3a.3.3,0,0,0,.088.215.3.3,0,0,0,.424,0,.307.307,0,0,0,.088-.215v-3.524l3.091,3.134a.3.3,0,0,0,.426-.432l-3.091-3.134h3.476a.3.3,0,0,0,.212-.089.286.286,0,0,0-.006-.419A.3.3,0,0,0,405.395,232.751Z" fill="#171923"/>
    <path id="Caminho_348" data-name="Caminho 348" d="M418,232.751h-3.476l3.092-3.128a.314.314,0,0,0,0-.432.3.3,0,0,0-.1-.067.3.3,0,0,0-.231,0,.312.312,0,0,0-.1.067l-3.091,3.134v-3.53a.3.3,0,0,0-.088-.215.3.3,0,0,0-.212-.089.3.3,0,0,0-.21.091.31.31,0,0,0-.09.213v3.53l-3.085-3.152a.285.285,0,0,0-.1-.067.3.3,0,0,0-.231,0,.3.3,0,0,0-.1.067.314.314,0,0,0,0,.432l3.092,3.128H409.6a.3.3,0,0,0-.21.091.315.315,0,0,0-.09.213.309.309,0,0,0,.088.216.3.3,0,0,0,.212.089h3.482l-3.092,3.134a.314.314,0,0,0,0,.432.308.308,0,0,0,.427,0l3.085-3.134V237.3a.307.307,0,0,0,.088.215.3.3,0,0,0,.424,0,.3.3,0,0,0,.088-.215v-3.524l3.091,3.134a.3.3,0,0,0,.513-.216.315.315,0,0,0-.086-.216l-3.092-3.134H418a.3.3,0,0,0,.212-.089.286.286,0,0,0-.006-.419A.3.3,0,0,0,418,232.751Z" fill="#171923"/>
    <path id="Caminho_349" data-name="Caminho 349" d="M430.605,232.751H427.13l3.091-3.128a.314.314,0,0,0,0-.432.3.3,0,0,0-.426,0l-3.091,3.134v-3.53a.308.308,0,0,0-.088-.215.3.3,0,0,0-.212-.089.3.3,0,0,0-.211.091.315.315,0,0,0-.09.213v3.53l-3.085-3.152a.286.286,0,0,0-.1-.067.3.3,0,0,0-.23,0,.285.285,0,0,0-.1.067.314.314,0,0,0,0,.432l3.091,3.128H422.2a.306.306,0,0,0-.212.52.3.3,0,0,0,.212.089h3.481l-3.091,3.134a.314.314,0,0,0,0,.432.307.307,0,0,0,.426,0l3.085-3.134V237.3a.307.307,0,0,0,.088.215.3.3,0,0,0,.425,0,.307.307,0,0,0,.088-.215v-3.524l3.091,3.134a.3.3,0,0,0,.426-.432l-3.091-3.134h3.475a.3.3,0,0,0,.213-.089.308.308,0,0,0,.087-.216.3.3,0,0,0-.094-.2A.3.3,0,0,0,430.605,232.751Z" fill="#171923"/>
    <path id="Caminho_350" data-name="Caminho 350" d="M443.211,232.751h-3.476l3.091-3.128a.312.312,0,0,0,0-.432.291.291,0,0,0-.213-.09.3.3,0,0,0-.213.09l-3.091,3.134v-3.53a.308.308,0,0,0-.088-.215.3.3,0,0,0-.212-.089.307.307,0,0,0-.3.3v3.53l-3.086-3.152a.291.291,0,0,0-.1-.067.308.308,0,0,0-.116-.023.3.3,0,0,0-.115.023.285.285,0,0,0-.1.067.314.314,0,0,0,0,.432l3.091,3.128h-3.481a.306.306,0,0,0-.212.52.3.3,0,0,0,.212.089h3.481l-3.091,3.134a.314.314,0,0,0,0,.432.307.307,0,0,0,.426,0l3.086-3.134V237.3a.3.3,0,0,0,.088.215.3.3,0,0,0,.424,0,.307.307,0,0,0,.088-.215v-3.524l3.091,3.134a.3.3,0,0,0,.426-.432l-3.091-3.134h3.476a.3.3,0,0,0,.212-.089.286.286,0,0,0-.006-.419A.3.3,0,0,0,443.211,232.751Z" fill="#171923"/>
    <path id="Caminho_351" data-name="Caminho 351" d="M455.816,232.751H452.34l3.092-3.128a.314.314,0,0,0,0-.432.3.3,0,0,0-.213-.09.291.291,0,0,0-.213.09l-3.092,3.134v-3.53a.3.3,0,0,0-.088-.215.3.3,0,0,0-.212-.089.3.3,0,0,0-.21.091.315.315,0,0,0-.09.213v3.53l-3.085-3.152a.286.286,0,0,0-.1-.067.3.3,0,0,0-.115-.023.308.308,0,0,0-.116.023.281.281,0,0,0-.1.067.312.312,0,0,0,0,.432l3.091,3.128h-3.482a.3.3,0,0,0-.21.091.315.315,0,0,0-.09.213.309.309,0,0,0,.088.216.3.3,0,0,0,.212.089h3.482l-3.091,3.134a.312.312,0,0,0,0,.432.307.307,0,0,0,.426,0l3.085-3.134V237.3a.307.307,0,0,0,.088.215.3.3,0,0,0,.424,0,.3.3,0,0,0,.088-.215v-3.524l3.092,3.134a.307.307,0,0,0,.426,0,.314.314,0,0,0,0-.432l-3.092-3.134h3.476a.3.3,0,0,0,.212-.089.286.286,0,0,0-.006-.419A.3.3,0,0,0,455.816,232.751Z" fill="#171923"/>
    <path id="Caminho_352" data-name="Caminho 352" d="M552.451,306.791a11,11,0,0,0-.27-2.185c-.54-2.057-1.759-4.547-3.763-5.167a31.33,31.33,0,0,1-5.967-2.557c-.36-6.524,1.117-13.2-.492-19.524-.6-2.313-1.591-4.529-1.855-6.9-.33-2.946.462-6.086-.7-8.8a8.6,8.6,0,0,0-5.072-4.443A26.7,26.7,0,0,0,527.571,256c-2.881-.237-12.209-1.357-15.463,1.254a3.42,3.42,0,0,0-.6.608h0a2.5,2.5,0,0,0-.192.317l-.03.048a2.476,2.476,0,0,0-.162.4h0a2.962,2.962,0,0,0-.1.457v1.1c.042.548.12,1.1.12,1.637a3.614,3.614,0,0,1-.072.8,5.653,5.653,0,0,1-1,1.972h0l-.108.158c-.066.1-.132.189-.192.286s-.108.17-.156.256-.1.14-.138.219a2.992,2.992,0,0,0-.156.31c0,.061-.066.116-.09.177a3.034,3.034,0,0,0-.18.511,3.435,3.435,0,0,0-.036,1.619,6.077,6.077,0,0,0,.822,1.917c.15.249.312.493.48.736l.421.579a13.121,13.121,0,0,0-.126,1.7,12.737,12.737,0,0,0,1.248,5.5,12.564,12.564,0,0,0,3.494,4.395,37.908,37.908,0,0,1-.078,7.724c-.055.535-.121,1.077-.193,1.612s-.126.889-.2,1.333a6,6,0,0,1-2.623-.2,12.312,12.312,0,0,0-1.2-.468c-1.747-.445-3.53,1.321-5.259.785a.72.72,0,0,1-.078.243,2.332,2.332,0,0,0-1.2-.359,4.359,4.359,0,0,1-2.605-1.515l-2.287-2.185a2.54,2.54,0,0,1-.4-.451,3.155,3.155,0,0,1-.276-.748,8.646,8.646,0,0,0-2.215-3.22,1.5,1.5,0,0,0-.655-.481,1,1,0,0,0-.3,0,2.564,2.564,0,0,0-.2-.243,5.585,5.585,0,0,0-.5-.511c-1.093-1.023-1.2-1.9-2.149-3.043a29.46,29.46,0,0,1-2.245-3.439c-.078-.639-.186-1.3-.318-1.96a25.5,25.5,0,0,0-1.315-4.443l-1.2-2.7-.138.14c-.871-1.315-1.8-2.033-2.635-1.863-1.4.293-2.089,3.044-1.867,6.641l.48,3.651a1.129,1.129,0,0,0,.066.274,6.826,6.826,0,0,0-.132,1.315c0,.511.468.888.714,1.345a3.842,3.842,0,0,1,.6,2.075c-.03.262-.108.512-.12.767a2.969,2.969,0,0,0,.564,1.583l3,5.112.6,1.071.036.049a2.593,2.593,0,0,0,.8.937,11.259,11.259,0,0,0,.99,3.7c.1.231.216.45.336.669A21.5,21.5,0,0,0,494,299.883l1.429,1.625c1.411,1.6,2.821,3.2,4.352,4.668a5.84,5.84,0,0,0,1.945,1.382,2.18,2.18,0,0,0,2.185-.323V309.5a1.24,1.24,0,0,1,.623.215,1.259,1.259,0,0,1,.43.5,1.285,1.285,0,0,1-.1,1.284,50.5,50.5,0,0,1-4.442,9.531,19.987,19.987,0,0,1,3.722,2.879,17.006,17.006,0,0,1,1.939,2.659c.054.451.1.895.12,1.339.444,7.255-2.323,14.455-4.8,21.369a16.829,16.829,0,0,0-1.435,6.05,11.7,11.7,0,0,0-1.345.98,9.12,9.12,0,0,1,.246,3.859,6.887,6.887,0,0,1-.5,2.434,17.239,17.239,0,0,1-.864,1.564c-1.555,2.782-1.9,6.087-2.209,9.264-.186,1.917.546,4.26-.312,5.976a24.685,24.685,0,0,0-3,9.361,9.52,9.52,0,0,1-.277,2.185c-.186.609-.516,1.126-.684,1.722a7.488,7.488,0,0,0-.12,2.435,23.609,23.609,0,0,1-1.26,8.588c-.751,2.172-1.579,4.5-.991,6.731a9.551,9.551,0,0,0-2.539,5.654,9.016,9.016,0,0,1-.192,1.613,7.9,7.9,0,0,1-.72,1.552,13.737,13.737,0,0,0-1.633,7.3,20.477,20.477,0,0,0-3.235,8.569c-.535,3.037-.769,6.129-1.453,9.129-.912,3.969-2.563,7.98-2.887,12.045-1.945,1.26-2.785,3.7-3.158,6.007s-.432,4.729-1.386,6.86c-.492,1.107-1.2,2.1-1.669,3.231a15.065,15.065,0,0,0-.72,2.782,11.006,11.006,0,0,0-.186,4.565,6.823,6.823,0,0,1-1.759,1.357c.1-.378.174-.755.24-1.138-1.549,1.424-4.358.925-5.594,2.635a2.592,2.592,0,0,0,.6,3.524,4.8,4.8,0,0,0,1.242.542c3,.973,6.087,1.953,9.172,1.436a2.718,2.718,0,0,0,1.039-.335,3.372,3.372,0,0,0,.966-1.132c.462-.742.925-1.485,1.381-2.227a28.394,28.394,0,0,0,3.367.8c.114.974.2,1.948.24,2.921.6.122,1.4.159,1.687-.407a1.487,1.487,0,0,0,.1-.676c0-.432.06-1,.1-1.589h.12a11.262,11.262,0,0,0,5.312-1.089c-.642-5.392,1.477-10.663,3.314-15.763,1.939-5.369,3.6-10.834,5.276-16.3,1.2-3.846,2.527-7.571,3.7-11.423q2.22-7.3,4.46-14.607c.648-2.143,1.3-4.261,2.046-6.391a100.274,100.274,0,0,1,5.565-12.556c.6-1.15,1.2-2.289,1.693-3.481.6-1.455,1.026-2.977,1.506-4.48a69.842,69.842,0,0,1,3.77-8.995c.042-.08.072-.153.114-.226.486,2.015.972,4.06,1.3,6.087a23.41,23.41,0,0,1,.1,7.522,25.134,25.134,0,0,0-.768,5.1c.09,2.379,1.345,4.54,1.963,6.834a26.3,26.3,0,0,1,.672,5.235c.168,2.738,1.633,5.812.6,8.35-3.212,8.04-1.657,17.121-3.488,25.562-.942,4.334-3.83,8.406-3.6,12.836q.24,4.718.816,9.41a9.042,9.042,0,0,0,.75,2.854,10.592,10.592,0,0,0,.823,1.364c-.265.1-.487.377-.679.955a3.784,3.784,0,0,0,1.333,4.26,5.766,5.766,0,0,0,1.735.609,9.024,9.024,0,0,0,2.509.353,5.777,5.777,0,0,0,.786-.1,28.409,28.409,0,0,0,2.839,1.034,6.347,6.347,0,0,0,.078.749.941.941,0,0,0,.312.688.928.928,0,0,0,.481.085h3.259V489.1a2.659,2.659,0,0,0,2.071-.681,3.274,3.274,0,0,0,.6-1.266q1.332-4.584,2.647-9.172a29.72,29.72,0,0,0,1.291-10.469c-1.159-11.217,1.386-22.47.558-33.718a81.866,81.866,0,0,1,1.02-20.231c.271-1.509.6-3.043.721-4.546.264-2.836-.06-5.7.138-8.521.066-.986.2-1.966.318-2.946A143.452,143.452,0,0,0,541,379.2a58.393,58.393,0,0,0-.372-6.086,3.419,3.419,0,0,0,1.639-.974,4.191,4.191,0,0,0,.39-2.6c0-2.154.9-4.187,1.615-6.22a74.843,74.843,0,0,0,2.269-8.557,30.242,30.242,0,0,0,1.008-7.151c0-.244-.012-.487-.036-.731a1.88,1.88,0,0,0,.552-.608,3.574,3.574,0,0,0,.289-1.126c.216-1.552.438-3.11.654-4.669q.24-1.672.474-3.341l1.909-13.505c.162-1.175.33-2.344.492-3.512l.5-3.494c.054-.414.114-.827.156-1.217C554.006,312.926,552.607,309.615,552.451,306.791Zm-15.924,50.565a11.246,11.246,0,0,1-1.2-5.289h-.066a2.749,2.749,0,0,0-.078-1.717c-.186-.444-.51-.821-.708-1.266a4.68,4.68,0,0,1-.324-1.7,47.049,47.049,0,0,1,.858-11.04c.078-.426.162-.858.24-1.284a3.142,3.142,0,0,0,.684-.542,4.952,4.952,0,0,0,.775-1.217c.678-1.382,1.3-2.788,1.866-4.218.187-.463.457-1,.919-1.114-.1,3.561.264,7.194-1.165,10.408a6.646,6.646,0,0,0-.6,1.643c-.132.907.24,1.826.108,2.727-.066.468-.264.9-.342,1.363a1.353,1.353,0,0,0,0,.692,1.336,1.336,0,0,0,.345.6,1.022,1.022,0,0,0,.258.134c-.036.243-.066.493-.09.73-.048.5-.072.968-.1,1.26a39.888,39.888,0,0,0-.162,4.48c0,1.613.06,3.225.036,4.869a3.336,3.336,0,0,1-.228,1.381,2.39,2.39,0,0,1-.456.609A15.855,15.855,0,0,0,536.527,357.356Z" fill="#fff"/>
    <path id="Caminho_353" data-name="Caminho 353" d="M489.144,286.736c1.831-.38,2.455-4.952,1.392-10.211s-3.409-9.213-5.241-8.833-2.455,4.953-1.392,10.211S487.312,287.117,489.144,286.736Z" fill="#fbbebe"/>
    <path id="Caminho_354" data-name="Caminho 354" d="M517.114,482.362a3.712,3.712,0,0,0,1.333,4.217,5.858,5.858,0,0,0,1.722.609,8.987,8.987,0,0,0,2.5.347c1.039-.049,2.035-.463,3.074-.609a.476.476,0,0,1,.354.049.524.524,0,0,1,.114.2.518.518,0,0,1,.018.228,16.191,16.191,0,0,0,.132,1.789.925.925,0,0,0,.083.378.59.59,0,0,0,.709.4h3.254a32.555,32.555,0,0,0-.931-8.606,1.926,1.926,0,0,0-.24-.608,1.978,1.978,0,0,0-1.038-.609,5.742,5.742,0,0,0-2.515-.444,7.322,7.322,0,0,0-2.821,1.4,4.256,4.256,0,0,1-3.2.785C518.579,481.589,517.672,480.67,517.114,482.362Z" fill="#3f3d56"/>
    <path id="Caminho_355" data-name="Caminho 355" d="M469.346,479.69a9.011,9.011,0,0,1-3.284,2.264l-.552.268a.384.384,0,0,0-.186.152.349.349,0,0,0,0,.144.336.336,0,0,0,.06.13,3.9,3.9,0,0,0,1.934,1.562,3.828,3.828,0,0,0,2.472.063,2.327,2.327,0,0,0,.966-.511,3.243,3.243,0,0,0,.745-1.96,4.076,4.076,0,0,0-.09-2.246C470.576,477.651,470.27,478.515,469.346,479.69Z" fill="#fbbebe"/>
    <path id="Caminho_356" data-name="Caminho 356" d="M481.819,487.188a1.487,1.487,0,0,1-.1.676c-.282.56-1.068.529-1.681.407a41.38,41.38,0,0,0-.738-6.147c-1.164-.054-2.005,1.065-2.629,2.07l-1.609,2.586a3.343,3.343,0,0,1-.96,1.132,2.812,2.812,0,0,1-1.039.335c-3.073.517-6.176-.462-9.141-1.436a4.791,4.791,0,0,1-1.243-.536,2.6,2.6,0,0,1-.6-3.518c1.242-1.7,4.033-1.217,5.582-2.629a14.336,14.336,0,0,1-.792,2.9c2.071-.316,3.463-2.24,5.132-3.524a3.143,3.143,0,0,1,1.465-.706,3.187,3.187,0,0,1,1.2.128,14,14,0,0,1,5.282,2.635,5.743,5.743,0,0,1,1.891,2C482.131,484.492,481.819,486.2,481.819,487.188Z" fill="#3f3d56"/>
    <path id="Caminho_357" data-name="Caminho 357" d="M523.111,286.378a12.576,12.576,0,1,0-12.4-12.575A12.489,12.489,0,0,0,523.111,286.378Z" fill="#fbbebe"/>
    <path id="Caminho_358" data-name="Caminho 358" d="M547.541,348.044a30.2,30.2,0,0,1-1,7.115,74.25,74.25,0,0,1-2.269,8.52c-.715,2.027-1.609,4.06-1.6,6.208a4.181,4.181,0,0,1-.4,2.593,3.718,3.718,0,0,1-1.753,1.016,2.2,2.2,0,0,0-1.476,1.333,9.441,9.441,0,0,1-1.249-2.787q-1.614-5.016-3-10.085a1.32,1.32,0,0,1,.084-1.217,1.481,1.481,0,0,1,.522-.3,5.387,5.387,0,0,0,1.663-1.083,2.461,2.461,0,0,0,.552-.724,3.331,3.331,0,0,0,.234-1.376c0-1.613,0-3.219-.042-4.832a41,41,0,0,1,.168-4.461c0-.293.054-.761.1-1.26.09-.956.27-2.064.78-2.435.763-.517,3.044.177,3.908.3,1.489.207,3,.451,4.454.737A12.2,12.2,0,0,1,547.541,348.044Z" fill="#3f3d56"/>
    <path id="Caminho_359" data-name="Caminho 359" d="M497.468,287.881c-.481.974-1.633,1.442-2.521,2.057l-3.044,2.118a2.015,2.015,0,0,1-.7.418,1.989,1.989,0,0,1-.806.105,1.964,1.964,0,0,1-.668-.417,2.021,2.021,0,0,1-.455-.648.191.191,0,0,0,0-.048l-.63-1.072-3-5.1a2.932,2.932,0,0,1-.559-1.57c0-.262.09-.505.114-.767a3.712,3.712,0,0,0-.6-2.069c-.24-.457-.72-.834-.708-1.345a4.924,4.924,0,0,1,.336-1.966,3.952,3.952,0,0,1,1.315-1.424c.282-.207.57-.4.87-.609a1.692,1.692,0,0,1,.522-.243c.5-.1.991.316,1.495.334,2.167,1.473,3,4.261,4.706,6.269.96,1.144,1.056,2.021,2.143,3.043.174.159.342.329.5.505a3.545,3.545,0,0,1,.54.792C496.519,286.767,497.714,287.382,497.468,287.881Z" fill="#3f3d56"/>
    <path id="Caminho_360" data-name="Caminho 360" d="M518.753,286.384a11.457,11.457,0,0,1,1.332,6.129,3.849,3.849,0,0,1-.522,1.612c-.864,1.345-2.677,1.589-4.256,1.668a2.48,2.48,0,0,0-1.848.609,1.72,1.72,0,0,0,.114,2.081,4.615,4.615,0,0,0,1.837,1.217,16.081,16.081,0,0,0,7.905,1.778c1.26-.122,2.485-.493,3.739-.682a38.823,38.823,0,0,1,4.118-.231c1.633-.061,3.26-.226,4.886-.39l4.31-.432a.954.954,0,0,0,.642-.237c.319-.378-.09-.932-.486-1.218-2.287-1.716-5.2-2.9-6.5-5.477a32.59,32.59,0,0,1-1.23-3.981,33.7,33.7,0,0,1-1.429-3.84,25.878,25.878,0,0,1-.2-3.542,4.792,4.792,0,0,0-1.2-3.238,4.954,4.954,0,0,0-3.266-1.065c-2.869-.128-5.924.566-7.959,2.617-.546.554-1.015,1.217-1.579,1.716s-1.332.645-.96,1.3,1.1,1.065,1.5,1.643a14.025,14.025,0,0,1,1.051,1.96Z" fill="#fbbebe"/>
    <path id="Caminho_361" data-name="Caminho 361" d="M543.2,304.089a69.978,69.978,0,0,1-3.673,13.712,51.894,51.894,0,0,0-2.161,6.147c-.463,1.887-.373,3.907-.8,5.8-.528,2.356-1.056,4.717-1.482,7.091a47.111,47.111,0,0,0-.853,11.016,4.691,4.691,0,0,0,.324,1.7c.2.438.517.816.7,1.266a3.085,3.085,0,0,1-.168,2.435,7.046,7.046,0,0,1-1.237,1.9c-5.594,1.692-11.579,1.139-17.407,1.5-5.373.328-10.8,1.448-16.1.517-.6-2.435.4-4.985,1.26-7.358,2.491-6.9,5.247-14.078,4.8-21.3a22.1,22.1,0,0,0-.282-2.514c-.87-5.118.078-10.42,1.6-15.38a26.762,26.762,0,0,0,.684-9.6,17.785,17.785,0,0,1-.042-3.147,5.573,5.573,0,0,1,1.129-2.939c0-.043.054-.086.084-.128s.264-.037.45,0a.379.379,0,0,0,.3,0l.066-.043a.153.153,0,0,1,.087-.028.15.15,0,0,1,.087.028c.138.085.216.378.516.432a11.8,11.8,0,0,0,1.339.128,7.126,7.126,0,0,1,1.6.231h.072a4.624,4.624,0,0,0,2.329-.2,6.125,6.125,0,0,0,1.428-.56c.132-.146.961-.28,1.129-.384.546-.335.426-1.9.54-2.55a7.118,7.118,0,0,1,.45-1.887,3.2,3.2,0,0,1,1.1-1.082,3.135,3.135,0,0,1,1.47-.433,13.5,13.5,0,0,1,3.08.28c2.239.322,4.532.268,6.728.791,1.1.262,2.311.657,3.326.146.276.067.318.311.318.609a3.955,3.955,0,0,1-.168.834c-.384,1.679.918,3.225,2.119,4.443a6.825,6.825,0,0,0,1.771,1.43c.6.28,1.2.395,1.8.7a3.291,3.291,0,0,1,1.2,1.114,4.681,4.681,0,0,1,.684,1.771A10.731,10.731,0,0,1,543.2,304.089Z" fill="#3f3d56"/>
    <path id="Caminho_362" data-name="Caminho 362" d="M543.2,304.089a69.978,69.978,0,0,1-3.673,13.712,52.069,52.069,0,0,0-2.161,6.147c-.462,1.887-.372,3.908-.8,5.8-.528,2.356-1.056,4.717-1.482,7.091-.126.073-.258.14-.39.2a9.187,9.187,0,0,1-2.353.767,14.237,14.237,0,0,1-4.394-.146l-8.566-1.163c-3.421-.469-7.065-1.035-9.6-3.384a20.718,20.718,0,0,1-3.349-4.638,22.308,22.308,0,0,0-.283-2.513c-.87-5.119.078-10.42,1.6-15.38a26.722,26.722,0,0,0,.684-9.605,17.775,17.775,0,0,1-.042-3.146,5.576,5.576,0,0,1,1.129-2.94,4.082,4.082,0,0,1,.534-.121h0a2.517,2.517,0,0,1,.366-.049h.174a2.588,2.588,0,0,1,.6.073,10.8,10.8,0,0,1,1.2.468h.072a4.536,4.536,0,0,0,1.6.232c.792,0,1.609-.128,2.4-.183a4.372,4.372,0,0,1,2.845.518,17.157,17.157,0,0,1,1.585,1.466,6.753,6.753,0,0,0,2,1.1,20.971,20.971,0,0,0,15.978-.341,3.1,3.1,0,0,1,1.6-.414,2.99,2.99,0,0,1,1.153.5c.36.213.714.42,1.08.609a4.681,4.681,0,0,1,.684,1.771,10.719,10.719,0,0,1-.186,3.567Z" opacity="0.1"/>
    <path id="Caminho_363" data-name="Caminho 363" d="M548.429,300.059a31.772,31.772,0,0,1-6.842-3.043,3.05,3.05,0,0,0-1.153-.5,3.188,3.188,0,0,0-1.609.414,20.961,20.961,0,0,1-15.972.341,6.906,6.906,0,0,1-2-1.1,18.006,18.006,0,0,0-1.585-1.466c-1.975-1.3-4.706.225-6.915-.609a12.061,12.061,0,0,0-1.2-.469c-1.747-.444-3.524,1.321-5.241.785a29.967,29.967,0,0,0-1.41,5.429,59.829,59.829,0,0,0-.39,6.4c0,1.284-.06,2.569,0,3.853a1.542,1.542,0,0,1,.593.232,1.568,1.568,0,0,1,.451.456,1.571,1.571,0,0,1-.1,1.308,50.251,50.251,0,0,1-4.43,9.5,20.42,20.42,0,0,1,3.71,2.872c2.1,2.252,3.133,5.411,5.4,7.493,2.557,2.343,6.2,2.915,9.6,3.378l8.566,1.162a14.432,14.432,0,0,0,4.4.152,9.158,9.158,0,0,0,2.347-.773,4.192,4.192,0,0,0,1.308-.876,4.862,4.862,0,0,0,.774-1.217c.679-1.376,1.3-2.782,1.867-4.206.2-.505.5-1.1,1.039-1.138,3.181-2.909,6.182-5.892,9.364-8.8a20.9,20.9,0,0,0,3.415-3.652c1.579-2.367.144-5.721,0-8.581a10.96,10.96,0,0,0-.27-2.173C551.641,303.157,550.428,300.674,548.429,300.059Z" fill="#171923"/>
    <path id="Caminho_364" data-name="Caminho 364" d="M497.468,287.881c-.48.974-1.633,1.442-2.521,2.057l-3.044,2.118a2.015,2.015,0,0,1-.7.418,1.989,1.989,0,0,1-.806.105,1.95,1.95,0,0,1-.667-.417,2.009,2.009,0,0,1-.456-.648v-.438a4.142,4.142,0,0,1,.192-1.454,4.517,4.517,0,0,1,1.345-1.753,10.985,10.985,0,0,1,3.944-2.435,1.341,1.341,0,0,1,.72-.073.956.956,0,0,1,.264.116,3.5,3.5,0,0,1,.54.791C496.519,286.767,497.714,287.382,497.468,287.881Z" opacity="0.1"/>
    <path id="Caminho_365" data-name="Caminho 365" d="M504.635,294.3a4.354,4.354,0,0,1-2.6-1.51l-2.275-2.142a2.156,2.156,0,0,1-.4-.45,3.269,3.269,0,0,1-.276-.749,8.593,8.593,0,0,0-2.209-3.214,1.439,1.439,0,0,0-.654-.474,1.288,1.288,0,0,0-.726.073,10.968,10.968,0,0,0-3.944,2.434,4.538,4.538,0,0,0-1.344,1.753,4.1,4.1,0,0,0-.192,1.455,11.306,11.306,0,0,0,1.044,4.65c.1.225.216.45.336.669a21.043,21.043,0,0,0,2.821,3.719l1.429,1.619c1.4,1.594,2.809,3.189,4.334,4.656a5.721,5.721,0,0,0,1.945,1.375,2.146,2.146,0,0,0,2.233-.365,3.289,3.289,0,0,0,.636-1.156,23.038,23.038,0,0,0,1.855-7.59,29.238,29.238,0,0,0-.132-3.146C506.429,294.8,505.655,294.363,504.635,294.3Z" fill="#171923"/>
    <path id="Caminho_366" data-name="Caminho 366" d="M541.01,379.5a142.709,142.709,0,0,1-1.284,18.3c-.12.98-.252,1.96-.318,2.94-.2,2.842.126,5.7-.138,8.521-.138,1.527-.451,3.043-.715,4.534a81.714,81.714,0,0,0-1.02,20.176c.828,11.217-1.711,22.44-.558,33.626a29.73,29.73,0,0,1-1.285,10.438q-1.314,4.572-2.641,9.13a3.185,3.185,0,0,1-.6,1.266,2.857,2.857,0,0,1-1.054.584,2.8,2.8,0,0,1-1.2.091c-3.464-.109-6.723-1.625-9.868-3.1a3.419,3.419,0,0,1-.991-.608c-.654-.688-.6-1.771-.888-2.678a25.581,25.581,0,0,0-1.513-2.69,8.893,8.893,0,0,1-.654-2.77q-.6-4.674-.817-9.385c-.228-4.418,2.654-8.484,3.6-12.781,1.8-8.448.276-17.5,3.475-25.52,1.009-2.531-.456-5.6-.6-8.326a26.774,26.774,0,0,0-.672-5.222c-.6-2.288-1.867-4.443-1.957-6.816a25.368,25.368,0,0,1,.762-5.082,23.135,23.135,0,0,0-.1-7.505c-.318-2.045-.8-4.09-1.29-6.086l-.108.225a69.414,69.414,0,0,0-3.764,8.977c-.48,1.492-.9,3.013-1.5,4.462-.493,1.217-1.1,2.331-1.693,3.475a100.47,100.47,0,0,0-5.553,12.507c-.744,2.106-1.4,4.261-2.046,6.373l-4.448,14.607c-1.2,3.84-2.515,7.553-3.692,11.387-1.663,5.478-3.325,10.907-5.258,16.263-1.8,5.082-3.944,10.346-3.3,15.714a11.266,11.266,0,0,1-5.3,1.09,30.672,30.672,0,0,1-9-2.216,6.983,6.983,0,0,1-3.109-1.874c-1.333-1.65-1-4.066-.6-6.166a15.014,15.014,0,0,1,.72-2.775c.456-1.12,1.2-2.112,1.669-3.219.942-2.125,1-4.529,1.374-6.835s1.2-4.742,3.146-5.995c.33-4.054,1.975-8.053,2.881-12.015.684-3,.912-6.086,1.453-9.129a20.214,20.214,0,0,1,3.223-8.551,13.71,13.71,0,0,1,1.633-7.3,8.078,8.078,0,0,0,.714-1.552,9.031,9.031,0,0,0,.192-1.607,9.557,9.557,0,0,1,2.533-5.642c-.6-2.221.234-4.54.985-6.7a23.559,23.559,0,0,0,1.26-8.563,7.594,7.594,0,0,1,.114-2.434c.168-.609.5-1.126.69-1.711a9.856,9.856,0,0,0,.271-2.185,25.513,25.513,0,0,1,3-9.336c.864-1.716.132-4.047.312-5.958.312-3.177.654-6.464,2.209-9.233.288-.524.6-1.023.858-1.565a6.834,6.834,0,0,0,.5-2.434,9.074,9.074,0,0,0-.246-3.847c3.212-2.708,7.594-3.469,11.771-3.651s8.4.2,12.492-.7c1.2-.274,2.4-.651,3.667-.834,2.875-.426,5.793.237,8.632.895a10.545,10.545,0,0,0,1.2,5.276A57.307,57.307,0,0,1,541.01,379.5Z" fill="#33313f"/>
    <path id="Caminho_367" data-name="Caminho 367" d="M526.874,380.9l-6.9,15.727c-.318-2.045-.8-4.09-1.29-6.086l-.108.225v-.328l3.757-8.381Z" opacity="0.1"/>
    <path id="Caminho_368" data-name="Caminho 368" d="M547.541,348.044a2.58,2.58,0,0,1-1.369.517,6.6,6.6,0,0,1-2.245-.31l-5.4-1.37a2.623,2.623,0,0,1-.492-.176c.09-.956.27-2.064.78-2.435.763-.517,3.044.177,3.908.3,1.489.207,3,.451,4.454.737a12.223,12.223,0,0,1,.366,2.739Z" opacity="0.1"/>
    <path id="Caminho_369" data-name="Caminho 369" d="M552.109,311.83c.114.506.276,1.005.372,1.516a11.7,11.7,0,0,1-.126,3.767l-.492,3.482-.492,3.5-1.9,13.469L549,340.9l-.661,4.656a3.361,3.361,0,0,1-.288,1.12,2.313,2.313,0,0,1-.8.8,2.28,2.28,0,0,1-1.08.322,6.7,6.7,0,0,1-2.245-.31l-5.4-1.376a1.663,1.663,0,0,1-.66-.274,1.328,1.328,0,0,1-.348-1.284c.078-.462.276-.894.342-1.357.132-.9-.24-1.826-.108-2.721a6.812,6.812,0,0,1,.6-1.637c1.8-4.035.756-8.746,1.369-13.128a20.03,20.03,0,0,1,4.165-9.4,26.837,26.837,0,0,1,4.6-4.577,9.269,9.269,0,0,1,2.588-1.826C552.157,309.682,551.929,311.063,552.109,311.83Z" fill="#171923"/>
    <path id="Caminho_370" data-name="Caminho 370" d="M511.226,259.4c-.4,1.278.222,2.684-.06,3.987-.307,1.436-1.639,2.434-2.017,3.877-.6,2.2,1.236,4.2,2.581,6.025,4.982,6.78,4.328,16.165,2.623,24.436a127.654,127.654,0,0,1-5.672,19.477,14.992,14.992,0,0,1-3.056,5.435c2.761-.8,5.7-1.613,8.464-.834,3.505.986,6.531,4.437,10.084,3.652,2.137-.481,3.638-2.4,5.558-3.47,3.6-1.966,7.942-.73,11.958-.1a4.628,4.628,0,0,0,2.611-.134,4.362,4.362,0,0,0,1.584-1.479,15.123,15.123,0,0,0,3.086-8.1,10.513,10.513,0,0,0-.627-4.316,10.389,10.389,0,0,0-2.321-3.675,17.013,17.013,0,0,1-2.527-2.434,7.649,7.649,0,0,1-.99-3.689c-.474-6.7,1.134-13.53-.522-20.005-.6-2.307-1.579-4.516-1.843-6.878-.33-2.939.456-6.086-.7-8.776a8.525,8.525,0,0,0-5.061-4.431,27.361,27.361,0,0,0-6.746-1.217C524.347,256.482,512.6,255.051,511.226,259.4Z" fill="#33313f"/>
    <g id="Grupo_11" data-name="Grupo 11" opacity="0.1">
      <path id="Caminho_371" data-name="Caminho 371" d="M514.353,297.728a127.192,127.192,0,0,1-5.643,19.4c.415-.833.763-1.71,1.093-2.58a126.932,126.932,0,0,0,5.672-19.476c1.711-8.278,2.365-17.65-2.617-24.437-1.2-1.619-2.743-3.371-2.689-5.27a6.483,6.483,0,0,0-1.02,1.911c-.6,2.2,1.236,4.2,2.581,6.025C516.712,280.072,516.058,289.457,514.353,297.728Z" opacity="0.1"/>
      <path id="Caminho_372" data-name="Caminho 372" d="M511.238,262.775a5.975,5.975,0,0,0,1.056-2.051,10.548,10.548,0,0,0-.072-2.715,2.925,2.925,0,0,0-1,1.394C510.871,260.48,511.28,261.649,511.238,262.775Z" opacity="0.1"/>
      <path id="Caminho_373" data-name="Caminho 373" d="M547.013,317.6a4.349,4.349,0,0,1-1.585,1.473,4.523,4.523,0,0,1-2.611.134c-4.016-.609-8.4-1.863-11.957.1-1.927,1.059-3.421,2.983-5.564,3.47-3.548.8-6.573-2.648-10.079-3.652-2.485-.7-5.1-.122-7.6.608a10.632,10.632,0,0,1-1.987,2.91c2.761-.8,5.7-1.613,8.464-.834,3.505.986,6.531,4.437,10.084,3.652,2.137-.481,3.638-2.4,5.559-3.47,3.6-1.965,7.941-.73,11.957-.1a4.628,4.628,0,0,0,2.611-.134,4.362,4.362,0,0,0,1.584-1.479,16.43,16.43,0,0,0,2.485-4.82A17.707,17.707,0,0,1,547.013,317.6Z" opacity="0.1"/>
    </g>
  </g>
</svg>
