<svg xmlns="http://www.w3.org/2000/svg" xmlns:xlink="http://www.w3.org/1999/xlink" width="1009.539" height="708.26" viewBox="0 0 1009.539 708.26">
  <defs>
    <linearGradient id="linear-gradient" x1="0.5" y1="1" x2="0.5" gradientUnits="objectBoundingBox">
      <stop offset="0" stop-color="gray" stop-opacity="0.251"/>
      <stop offset="0.54" stop-color="gray" stop-opacity="0.122"/>
      <stop offset="1" stop-color="gray" stop-opacity="0.102"/>
    </linearGradient>
  </defs>
  <g id="share-home" transform="translate(-7.684 -0.048)">
    <path id="Caminho_264" data-name="Caminho 264" d="M685.63,207.25c-64.72-2.25-126.36-23.14-185.23-46S383.24,113.06,320.07,101c-40.63-7.79-87.09-8.89-119.83,12.89-31.5,21-41.68,57.15-47.16,90.72-4.11,25.27-6.54,51.85,4.75,75.5,7.83,16.42,21.74,30.22,31.36,45.95,33.46,54.72,9.81,122.2-26.46,175.63-17,25.06-36.74,49-49.87,75.66s-19.2,57.25-7.72,84.47c11.39,27,38.52,47.24,67.9,61.49,59.69,28.94,130,37.23,198.62,41.92,151.82,10.39,304.46,5.89,456.68,1.39,56.34-1.67,112.92-3.36,168.34-12.07,30.78-4.84,62.56-12.52,84.9-31,28.36-23.53,35.39-63.38,16.39-92.88-31.88-49.49-120-61.79-142.31-114.9-12.27-29.23.33-61.8,18.15-88.91,38.24-58.17,102.33-109.19,105.71-175.68,2.32-45.66-28.49-91.39-76.13-113-49.94-22.65-119.18-19.8-156,17.69C809.43,194.38,742.77,209.23,685.63,207.25Z" transform="translate(-91.39 -95.85)" fill="#ccc" opacity="0.1"/>
    <path id="Caminho_267" data-name="Caminho 267" d="M1024.66,763c-1-3.62-2-7.29-4-10.44a36.279,36.279,0,0,0-6.56-7.17c-7.25-6.59-16.16-13.28-25.77-11.61a34,34,0,0,0-8.56,3.12c-1.4.65-2.81,1.3-4.25,1.85a21.2,21.2,0,0,1-12.83,1.12c-2.2-.59-4.25-1.65-6.42-2.31a20.721,20.721,0,0,0-3.16-.68,58.19,58.19,0,0,0,6.1-3.21C970,727,978.61,715,977.4,702.3c-.4-4.3-1.88-8.41-3.34-12.46q-1.92-5.31-3.85-10.63c-1.66-4.61-3.37-9.3-6.41-13.13-3.38-4.26-8.18-7.15-13.14-9.31-10.66-4.63-22.31-6.26-33.81-7.84l-.8-.11V524.58a8,8,0,0,0-8-8.05H892.92q-1-6.12-2-12.23c-1.91-11.61-3.88-23.45-9.23-33.91-3.5-6.85-9.08-13.37-16.59-14.72a16.54,16.54,0,0,1-4.32-1c-2.2-1.08-3.4-3.48-5.1-5.26-4.36-4.57-11.45-4.64-17.3-7-5.16-2.05-9.38-5.92-14.08-8.89s-10.55-5.09-15.76-3.15a10.806,10.806,0,0,1-.11,1.13l-3.34-1.5c-3.6-1.66-7.28-3.38-10.17-6.12-3.72-3.51-5.7-8.14-7.24-13.08-.16-.52-.31-1-.46-1.55a46.53,46.53,0,0,0,12.44-23.77c.27.87.55,1.75.82,2.63a13.879,13.879,0,0,0,1,2.59,6.855,6.855,0,0,0,.47.79,5.1,5.1,0,0,0,1.22,1.27,3.41,3.41,0,0,0,1.61.63,3,3,0,0,0,.84,0,4.62,4.62,0,0,0,3.36-2.87,6,6,0,0,0,.35-1.22,6.317,6.317,0,0,0,.07-.76q0-.12,0-.24v-1.56a2.913,2.913,0,0,0-.1-.59c-.04-.19,0-.11,0-.16-.05-.26-.11-.51-.16-.77a1,1,0,0,1,0-.17l-.15-.63-.09-.38v-.1h0c-.1-.39-.19-.79-.28-1.19a34.44,34.44,0,0,1-.55-10.57,114.489,114.489,0,0,1,2.86-15.36l.21-.91.24-1.06c.16-.72.31-1.44.46-2.16h0c.13-.61.25-1.23.36-1.85s.19-1.09.27-1.64V349a47.523,47.523,0,0,0,.49-11.28h0c-.47-5.23-2.09-10.18-5.65-14.13-2.51-2.79-5.81-4.85-8.14-7.78-2.19-2.75-3.42-6.13-5.68-8.82-6.25-7.46-22.28-13.21-32.12-14.21-11.27-1.14-29.48,1.74-38.56,8.4-3.36,2.46-5.66,6-8,9.37-4.3,6.26-9.19,12.5-16.08,16-2.61,1.32-5.59,2.32-7.32,4.62a12.589,12.589,0,0,0-2,5.19,102.209,102.209,0,0,0-2.06,19.8,24.407,24.407,0,0,0,1.1,8.6c.14.38.31.77.49,1.14h0c.16.33.34.66.53,1l.12.21a41.545,41.545,0,0,1,3.21,5.45,7.9,7.9,0,0,1,.48,1.66,12.292,12.292,0,0,1-.28,4.39h0a2.8,2.8,0,0,1-.13.64l-.09.46a.825.825,0,0,1-.08.43q-.12.65-.21,1.29c0,.3-.06.61-.07.92a7.51,7.51,0,0,0,.69,3.6,4.579,4.579,0,0,0,.47.76,4,4,0,0,0,1.35,1.15,15.141,15.141,0,0,0,3.7.88c3.74.84,6.08,3.7,7.6,7.21a25.461,25.461,0,0,1,.89,2.41,42.628,42.628,0,0,1,1.4,6.27c1.7-.09,2.69-1.59,3.29-3.23a15.21,15.21,0,0,0,.47-1.65c.23-1.05.46-2.1.7-3.15a46.49,46.49,0,0,0,18.26,20.12c.28.82.55,1.65.8,2.49,1.31,4.53,1.94,9.28-.33,13.24-1.62,2.81-4.35,4.55-7.39,5.75a4.891,4.891,0,0,0-1.65-1.41c-2.64-1.32-5.8.29-8,2.26-4,3.62-7.26,8.81-12.53,10-1.9.44-4,.35-5.59,1.51a12.92,12.92,0,0,0-2.59,3.41,11.93,11.93,0,0,1-10.24,5.1c-1.83-.09-4-.51-5.25.83-.93,1-1,2.59-2,3.54-1.35,1.32-3.54.67-5.42.59a10,10,0,0,0-7.25,3.14,17.06,17.06,0,0,0-4.36-10.9c-2.7-2.78-6.45-4.21-9.65-6.39-8-5.44-12-15-16.17-23.76s-9.67-18-18.77-21.19c-2.09-.74-5-.8-5.94,1.23a4.43,4.43,0,0,0-.15,2.65c.88,4.66,4.2,8.4,7.07,12.15,4.83,6.32,8.88,14.05,7.71,21.95-1.37,9.35-9.7,16.61-10.7,26-.44,4.14.61,8.3.6,12.46,0,2.6-.41,5.23.15,7.76a52.632,52.632,0,0,0,2.11,5.65,33.091,33.091,0,0,1,1.38,9.31q1.06,19.88,2.11,39.77c.53,9.89-1.63,19.65-3.81,29.38a92.19,92.19,0,0,0-6.26,18c-2.46,10.83-2.53,22.37,1,32.91,1.89,5.73,4.79,11.1,6.34,16.93a1.538,1.538,0,0,0,.09.37c.15,1.24.32,2.48.55,3.71a35.653,35.653,0,0,0,1.11,4.2,29.933,29.933,0,0,0,2.2,6.87,19.22,19.22,0,0,0,6,7c-1.44,2.82-3.77,5.09-5.32,7.85-2.7,4.78-2.81,10.65-1.83,16.07,1.89,10.46,7.54,19.81,15,27.41a8.676,8.676,0,0,0-1,0,15.68,15.68,0,0,0-6.84,2.45c-15.79,9.23-24.82,29-21.52,47.1.65,3.54,1.78,7.12,4.14,9.81a15.56,15.56,0,0,0,7.29,4.47,25.292,25.292,0,0,0,5.37,1c12.31,1,24.23-4.71,36.57-5.19a98.479,98.479,0,0,1,12.25.57q8.91.74,17.86.94c9.69.23,15.15-2.35,21.34-9.6a25.88,25.88,0,0,0,3.77-5.94c5.26-.3,11.07-.76,15.28-1.11l.06.59c.23,2,.58,4.3,2.18,5.57a7.791,7.791,0,0,0,3,1.22c10.11,2.49,20.34,5,30.74,5a129.738,129.738,0,0,0,14.6-1.13l18.3-2.11a93.211,93.211,0,0,1,15.71,3.42c5.28,1.8,10.22,4.47,15.38,6.57,12,4.87,24.92,6.61,37.71,8.31,2.18.29,4.68.49,6.3-1,2.08-2,1.38-5.35.8-8.15-.24-1.14-.42-2.3-.57-3.46a173.507,173.507,0,0,1,25.26,8.77l1.44.63c.41,2.18,2.43,3.93,4.36,6.28a15.9,15.9,0,0,0,2.21,2.73,7.25,7.25,0,0,0,3.17,1.15,148.118,148.118,0,0,0,41,1.85,42.008,42.008,0,0,1,8.45-.29,35.635,35.635,0,0,1,6.1,1.38l11.58,3.31c8.53,2.45,17.28,4.92,26.13,4.37a34.717,34.717,0,0,0,5.34-.77c7-1.62,13.53-5.54,16.89-11.84C1029.42,782.89,1027.23,772.36,1024.66,763ZM685,606.59a36.389,36.389,0,0,1-3.34,12.51c-1.24,2.51-2.84,4.82-4,7.34-1.1,2.28-1.92,6.59-2.41,11.32-.6-.1-1.21-.19-1.81-.26.89-3.12,1.56-6.32,2.45-9.45C678,620.61,681.47,613.58,685,606.59Z" transform="translate(-91.39 -95.85)" fill="url(#linear-gradient)"/>
    <path id="Caminho_268" data-name="Caminho 268" d="M700.41,760.39c-2.11-4.8-4.11-10.32-2-15.12a12.85,12.85,0,0,1,6.65-6.25,32,32,0,0,1,9-2.22,125.6,125.6,0,0,1,29.26-.4c.71,5.62-.79,11.32-2.08,16.75-1.17,5-1.84,5.74-7,6C730.9,759.33,701.2,762.16,700.41,760.39Z" transform="translate(-91.39 -95.85)" fill="#fbbebe"/>
    <ellipse id="Elipse_11" data-name="Elipse 11" cx="143" cy="40" rx="143" ry="40" transform="translate(555.07 552.16)" fill="#464353"/>
    <ellipse id="Elipse_12" data-name="Elipse 12" cx="143" cy="40" rx="143" ry="40" transform="translate(555.07 552.16)" opacity="0.1"/>
    <path id="Caminho_269" data-name="Caminho 269" d="M815.1,476.85a44.49,44.49,0,0,1-22.94,20.84A57.579,57.579,0,0,1,774,501.15c-6.79.31-13.72-.13-20.1-2.45-8.56-3.1-15.67-9.44-21-16.83s-9-15.83-12.19-24.34c-1.68-4.43-3.28-9.15-2.49-13.83,5.15-1.17,10.79-2.89,13.45-7.46,2.27-3.92,1.64-8.62.33-13.1-.37-1.27-.8-2.53-1.23-3.74-1-2.9-4.45-8.41-2.05-10.89,1.53-1.57,7.94-2.37,10.15-3.39,6.81-3.14,13.09-7.68,20.57-9.17,6.47-1.29,13.15-.08,19.61,1.26a6.45,6.45,0,0,1,2.42.87,5.82,5.82,0,0,1,1.8,2.7c1.84,4.48,2.92,9.43,4.4,14.1,1.54,4.89,3.52,9.48,7.23,12.95,2.89,2.71,6.57,4.41,10.17,6.06l8.86,4.06a11.65,11.65,0,0,1,4.19,2.71,10.611,10.611,0,0,1,2,5.44,50.819,50.819,0,0,1-5.02,30.75Z" transform="translate(-91.39 -95.85)" fill="#fbbebe"/>
    <path id="Caminho_270" data-name="Caminho 270" d="M787.63,414.88A46,46,0,0,1,732,423.14c-.37-1.27-.8-2.53-1.23-3.74-1-2.9-4.45-8.41-2.05-10.89,1.53-1.57,7.94-2.37,10.15-3.39,6.81-3.14,13.09-7.68,20.57-9.17,6.47-1.29,13.15-.08,19.61,1.26a6.449,6.449,0,0,1,2.42.87,5.82,5.82,0,0,1,1.8,2.7C785.07,405.26,786.15,410.21,787.63,414.88Z" transform="translate(-91.39 -95.85)" opacity="0.1"/>
    <circle id="Elipse_13" data-name="Elipse 13" cx="46" cy="46" r="46" transform="translate(617.07 239.16)" fill="#fbbebe"/>
    <path id="Caminho_271" data-name="Caminho 271" d="M894.61,530.3l-3.78-22.9c-1.91-11.49-3.88-23.2-9.22-33.55-3.51-6.78-9.08-13.24-16.59-14.58a16.051,16.051,0,0,1-4.32-1c-2.2-1.06-3.4-3.44-5.09-5.2-4.36-4.52-11.46-4.59-17.3-6.89-5.16-2-9.38-5.85-14.08-8.79s-10.55-5-15.75-3.12c-.84,8.95-1.73,18.1-5.53,26.25a39.28,39.28,0,0,1-59.26,14.76c-8.91-6.71-14.62-17.06-17.28-27.89-.65-2.64-1.39-5.67-3.82-6.88-2.63-1.32-5.79.28-8,2.22-4.05,3.59-7.27,8.73-12.53,9.94-1.9.44-4,.35-5.58,1.5a12.7,12.7,0,0,0-2.6,3.37,12,12,0,0,1-10.23,5.06c-1.83-.09-4-.51-5.25.82-.93,1-1,2.56-2,3.49-1.35,1.31-3.54.67-5.42.6-3.56-.15-6.87,2.13-8.91,5s-3,6.42-4,9.86C669,506.71,679,531.08,689.93,555.42a6.23,6.23,0,0,1,.79,3,7.31,7.31,0,0,1-1.36,3c-5.36,8.61-5.19,19.44-4.6,29.56s1.31,20.81-3.21,29.88c-1.23,2.49-2.83,4.77-4,7.26-2.74,5.64-3.73,23.68-2.13,29.74h226c-4.31-11.85-2.67-35.63-1.77-48.21.63-8.8-1-17.59-1.7-26.39C896.48,565.29,897.58,548.24,894.61,530.3Z" transform="translate(-91.39 -95.85)" fill="#f86d70"/>
    <path id="Caminho_272" data-name="Caminho 272" d="M906.18,650.86c3.33-1.27,7-.81,10.57-.33,11.49,1.57,23.15,3.18,33.8,7.77,5,2.14,9.76,5,13.14,9.21,3,3.79,4.75,8.43,6.41,13L973.94,691c1.46,4,2.94,8.08,3.35,12.33,1.2,12.59-7.41,24.46-18.24,31s-23.58,8.87-36,11.31-24.89,5.14-37.26,8a149.989,149.989,0,0,1-17.53,3.45c-13.24,1.5-27.08-.71-39.66,3.67-5,1.75-9.91,4.35-15.1,5.56A93.938,93.938,0,0,1,803.07,768l-23.81,2.72a129.889,129.889,0,0,1-14.6,1.12c-10.4,0-20.63-2.46-30.73-4.92a7.772,7.772,0,0,1-3-1.21c-1.6-1.26-1.95-3.49-2.18-5.51q-1.53-13.41-2.68-26.85c-.24-2.91-.42-6.06,1.17-8.51,2-3,5.9-3.94,9.46-4.52a246.891,246.891,0,0,1,45.68-3.17c5.81-5.81,15.39-5.84,23-9a68.4,68.4,0,0,0,8.11-4.41A106,106,0,0,1,858,689.67a41.446,41.446,0,0,0,9.11-1.3c5.89-1.83,11.26-6.81,17.31-5.59.75-2.07,1.27-4.84,3-6.26.86-.73,1.92-1.22,2.71-2,1.67-1.69,1.82-4.35,1.57-6.71s-.81-4.78-.2-7.08a9.793,9.793,0,0,1,1.11-2.47C895.62,653,900.15,650.36,906.18,650.86Z" transform="translate(-91.39 -95.85)" fill="#464353"/>
    <path id="Caminho_273" data-name="Caminho 273" d="M906.18,650.86c3.33-1.27,7-.81,10.57-.33,11.49,1.57,23.15,3.18,33.8,7.77,5,2.14,9.76,5,13.14,9.21,3,3.79,4.75,8.43,6.41,13L973.94,691c1.46,4,2.94,8.08,3.35,12.33,1.2,12.59-7.41,24.46-18.24,31s-23.58,8.87-36,11.31-24.89,5.14-37.26,8a149.989,149.989,0,0,1-17.53,3.45c-13.24,1.5-27.08-.71-39.66,3.67-5,1.75-9.91,4.35-15.1,5.56A93.938,93.938,0,0,1,803.07,768l-23.81,2.72a129.889,129.889,0,0,1-14.6,1.12c-10.4,0-20.63-2.46-30.73-4.92a7.772,7.772,0,0,1-3-1.21c-1.6-1.26-1.95-3.49-2.18-5.51q-1.53-13.41-2.68-26.85c-.24-2.91-.42-6.06,1.17-8.51,2-3,5.9-3.94,9.46-4.52a246.891,246.891,0,0,1,45.68-3.17c5.81-5.81,15.39-5.84,23-9a68.4,68.4,0,0,0,8.11-4.41A106,106,0,0,1,858,689.67a41.446,41.446,0,0,0,9.11-1.3c5.89-1.83,11.26-6.81,17.31-5.59.75-2.07,1.27-4.84,3-6.26.86-.73,1.92-1.22,2.71-2,1.67-1.69,1.82-4.35,1.57-6.71s-.81-4.78-.2-7.08a9.793,9.793,0,0,1,1.11-2.47C895.62,653,900.15,650.36,906.18,650.86Z" transform="translate(-91.39 -95.85)" opacity="0.05"/>
    <path id="Caminho_274" data-name="Caminho 274" d="M709.61,766.57c-6.19,7.17-11.64,9.73-21.33,9.5q-8.94-.21-17.86-.93a100.2,100.2,0,0,0-12.24-.57c-12.34.48-24.25,6.13-36.56,5.14a25.918,25.918,0,0,1-5.37-1A15.63,15.63,0,0,1,609,774.3c-2.36-2.67-3.49-6.21-4.14-9.71-3.29-17.94,5.73-37.48,21.52-46.61a15.78,15.78,0,0,1,6.84-2.43,16.21,16.21,0,0,1,6.92,1.52l.15.06a52.331,52.331,0,0,1,17.14,11.44,9.66,9.66,0,0,0,2.62,2.11,9,9,0,0,0,3.09.58l13.14.83a31.139,31.139,0,0,1,6.6.91,52.458,52.458,0,0,1,6.94,3c7.07,3.16,14.91,4,22.55,5.22a3.37,3.37,0,0,1,2,.8,3.129,3.129,0,0,1,.62,1.3,25.51,25.51,0,0,1-5.38,23.25Z" transform="translate(-91.39 -95.85)" fill="#3f3d56"/>
    <path id="Caminho_275" data-name="Caminho 275" d="M640.25,717.13a78.9,78.9,0,0,0-13.15,16.44,82.278,82.278,0,0,0-10.74,32.54,60.394,60.394,0,0,0-.11,12.61A15.63,15.63,0,0,1,609,774.3c-2.36-2.67-3.49-6.21-4.14-9.71-3.29-17.94,5.73-37.48,21.52-46.61a15.78,15.78,0,0,1,6.84-2.43,16.21,16.21,0,0,1,6.92,1.52Z" transform="translate(-91.39 -95.85)" opacity="0.1"/>
    <path id="Caminho_276" data-name="Caminho 276" d="M894.74,742c7.35-.2,15.6-.57,21,4.38,5.15,4.68,5.83,12.4,6.17,19.35l.39,8.07c.12,2.46.22,5-.77,7.28-1.76,4-6.59,5.93-11,5.7s-8.46-2.16-12.49-3.9a175.692,175.692,0,0,0-34-10.71q.57-8.37,1.9-16.66c.61-3.83.71-10.24,3.27-13.42,2.71-3.36,6.24-1.54,9.92-.92a79.634,79.634,0,0,0,15.61.83Z" transform="translate(-91.39 -95.85)" fill="#fbbebe"/>
    <path id="Caminho_277" data-name="Caminho 277" d="M700.52,660.92c0,1-1.57,0-1.71-1.07-1.1-8.09-7.52-14.76-15-18s-16-3.41-24.1-2.64c-12.25,1.16-25.95,5.85-30.48,17.3-1.06,2.68-1.54,5.58-2.84,8.15-1.44,2.82-3.79,5.07-5.35,7.81-2.69,4.74-2.8,10.55-1.83,15.91,2.61,14.3,12.39,26.53,24.24,35s25.7,13.53,39.51,18.09a685.192,685.192,0,0,0,112,26.75c6.16.93,12.38,1.79,18.28,3.77,5.28,1.77,10.22,4.42,15.38,6.5,12,4.82,24.91,6.54,37.7,8.23,2.18.28,4.68.48,6.29-1,2.08-1.93,1.39-5.29.8-8.06a43.35,43.35,0,0,1,5.09-30.74c2.14-3.6,4.92-7.29,4.52-11.46-.48-4.86-5.32-8.3-10.14-9.08s-9.72.37-14.56,1a7.989,7.989,0,0,1-5-.49,9.888,9.888,0,0,1-1.94-1.72,21.93,21.93,0,0,0-25.54-3.57c-1.79,1-4.5-1.23-6.36-2.07L798.47,710c-24.16-10.93-48.44-21.91-74-28.83a15.542,15.542,0,0,1-5.7-2.37c-1.27-1-2.18-2.36-3.35-3.47-2.55-2.41-6.1-3.37-9.16-5.08S699.8,664.35,700.52,660.92Z" transform="translate(-91.39 -95.85)" fill="#464353"/>
    <path id="Caminho_278" data-name="Caminho 278" d="M1024.71,791.61c-3.36,6.23-9.88,10.11-16.88,11.71a33.494,33.494,0,0,1-5.34.76c-8.85.55-17.59-1.9-26.12-4.32l-11.58-3.28a36.554,36.554,0,0,0-6.1-1.36,41.855,41.855,0,0,0-8.44.29,149.594,149.594,0,0,1-41-1.84,7.228,7.228,0,0,1-3.17-1.13,15.751,15.751,0,0,1-2.21-2.71c-3.15-3.79-6.54-6-2.81-11,2.15-2.9,6.14-4.35,7.81-7.68s.6-8.06-.39-11.5c-1.35-4.75-5.79-6.8-7.38-11.16-1.19-3.29.81-7.11,3.82-8.9s6.73-1.93,10.2-1.47,6.87,1.44,10.36,1.71c10.26.82,20.75-4.47,30.6-1.49,2.17.66,4.22,1.71,6.42,2.29a21.351,21.351,0,0,0,12.83-1.11c1.44-.54,2.85-1.19,4.25-1.83a34.226,34.226,0,0,1,8.55-3.09c9.61-1.65,18.52,5,25.77,11.49a36.436,36.436,0,0,1,6.55,7.1,35.646,35.646,0,0,1,4,10.33C1027.1,772.69,1029.29,783.11,1024.71,791.61Z" transform="translate(-91.39 -95.85)" fill="#3f3d56"/>
    <path id="Caminho_279" data-name="Caminho 279" d="M1024.71,791.61c-3.36,6.23-9.88,10.11-16.88,11.71a32.689,32.689,0,0,0,3.55-17.16c-.6-9.51-4.78-18.47-10.11-26.37a93.4,93.4,0,0,0-11.14-13.57c-3.18-3.2-7.09-5.74-10.51-8.67a34.234,34.234,0,0,1,8.55-3.09c9.61-1.65,18.52,5,25.77,11.49a36.438,36.438,0,0,1,6.55,7.1,35.645,35.645,0,0,1,4,10.33C1027.1,772.69,1029.29,783.11,1024.71,791.61Z" transform="translate(-91.39 -95.85)" opacity="0.1"/>
    <path id="Caminho_280" data-name="Caminho 280" d="M722.68,306.35c-3.36,2.43-5.66,5.92-8,9.27-4.31,6.19-9.19,12.37-16.08,15.82-2.61,1.31-5.59,2.3-7.32,4.58a12.339,12.339,0,0,0-1.95,5.13,101.647,101.647,0,0,0-2.06,19.6c0,3.28.14,6.66,1.59,9.64,1.37,2.8,3.84,5.17,4.35,8.22.39,2.38-.49,4.75-.8,7.14s.23,5.22,2.44,6.36a14.791,14.791,0,0,0,3.7.87c6.65,1.48,8.88,9.28,9.89,15.73,2.26-.13,3.28-2.72,3.75-4.83l6.93-30.81c.75-3.34,2-7.21,5.33-8.38,2.23-.77,4.67-.05,7,.15,9.15.75,16.89-6.32,25.84-8.27A33,33,0,0,1,766,356c7.06.35,15.27,3.25,16.77,9.84.25,1.07.4,2.35,1.4,2.88s2,.08,3.1,0c4.48-.45,7.12,4.59,8.41,8.71l4.7,15c.7,2.27,1.88,4.94,4.34,5.23,2.27.28,4.2-1.87,4.54-4s-.4-4.34-.89-6.48c-2.21-9.85,1.17-19.93,3.23-29.8s2.43-21.21-4.48-28.81c-2.51-2.75-5.81-4.8-8.15-7.7-2.18-2.72-3.41-6.06-5.67-8.73-6.25-7.37-22.28-13.06-32.11-14C750,296.91,731.76,299.76,722.68,306.35Z" transform="translate(-91.39 -95.85)" fill="#3f3d56"/>
    <g id="Grupo_10" data-name="Grupo 10" opacity="0.1">
      <path id="Caminho_281" data-name="Caminho 281" d="M804.76,390.65c-2.46-.3-3.64-3-4.34-5.23q-2.35-7.51-4.7-15c-1.29-4.13-3.93-9.17-8.41-8.71-1,.11-2.18.52-3.1,0s-1.15-1.81-1.4-2.88c-1.5-6.6-9.71-9.49-16.77-9.84a33.43,33.43,0,0,0-8.71.57c-9,2-16.69,9-25.84,8.27-2.36-.19-4.8-.91-7-.14-3.37,1.16-4.58,5-5.33,8.38l-6.93,30.8c-.47,2.12-1.49,4.71-3.75,4.83-1-6.44-3.24-14.24-9.89-15.72a15.722,15.722,0,0,1-3.7-.87,4.34,4.34,0,0,1-1.93-2.15c-.18.93-.39,1.86-.51,2.79-.3,2.38.23,5.22,2.44,6.36a14.789,14.789,0,0,0,3.7.87c6.65,1.48,8.88,9.28,9.89,15.73,2.26-.13,3.28-2.72,3.75-4.83l6.93-30.81c.75-3.34,2-7.21,5.33-8.38,2.23-.77,4.67-.05,7,.15,9.15.75,16.89-6.32,25.84-8.27A33,33,0,0,1,766,356c7.06.35,15.27,3.25,16.77,9.84.25,1.07.4,2.35,1.4,2.88s2,.08,3.1,0c4.48-.45,7.12,4.59,8.41,8.71q2.34,7.51,4.7,15c.7,2.27,1.88,4.94,4.34,5.23,2.27.28,4.2-1.87,4.54-4a13.58,13.58,0,0,0-.6-5.31,4.13,4.13,0,0,1-3.9,2.3Z" transform="translate(-91.39 -95.85)"/>
      <path id="Caminho_282" data-name="Caminho 282" d="M693.22,371.61c-.51-3.05-3-5.42-4.35-8.22a16.451,16.451,0,0,1-1.48-6c0,1.12-.1,2.24-.11,3.37,0,3.28.14,6.66,1.59,9.64,1.11,2.27,2.94,4.27,3.86,6.58a15.061,15.061,0,0,0,.49-5.37Z" transform="translate(-91.39 -95.85)"/>
      <path id="Caminho_283" data-name="Caminho 283" d="M811.64,350.33c-1.82,8.72-4.66,17.6-3.78,26.34.57-6.45,2.45-12.94,3.78-19.34a51,51,0,0,0,1.16-14.82,61.151,61.151,0,0,1-1.16,7.82Z" transform="translate(-91.39 -95.85)"/>
    </g>
    <path id="Caminho_284" data-name="Caminho 284" d="M697.16,574.5c-1.21,19.86-15.78,36.27-21.33,55.37-1.38,4.78-2.21,9.74-4.19,14.29-4,9.15-12.23,15.79-21,20.47a31.539,31.539,0,0,1-10.34,3.76,19.82,19.82,0,0,1-19.91-10.59c-2.29-4.65-2.61-10-4-15-1.55-5.77-4.45-11.09-6.34-16.76-3.48-10.43-3.41-21.85-1-32.57a100,100,0,0,1,10.73-26.56c.7-1.23,1.41-2.45,2.14-3.66a83.182,83.182,0,0,1,6.93-10c6-7.23,13.71-12.79,21.34-18.27a5,5,0,0,1,2-1h.12a4.83,4.83,0,0,1,2.47.58A195.562,195.562,0,0,1,685.13,551c3.44,2.29,8.87,4.85,10.67,8.75S697.42,570.26,697.16,574.5Z" transform="translate(-91.39 -95.85)" fill="#fbbebe"/>
    <path id="Caminho_285" data-name="Caminho 285" d="M657.46,483.11a10.35,10.35,0,0,0-2.22,3.55,167.858,167.858,0,0,0-14.1,57.62,5.76,5.76,0,0,1-.65,2.79,12.217,12.217,0,0,1-1.47,1.59,5.52,5.52,0,0,0,.94,8c1.65-3.11,5.6-4.12,9.11-4.39,16.81-1.33,33.23,6.49,50.09,5.9-1.19-4.11-2.9-8.06-3.87-12.22-4.29-18.47,6.41-38.58-.15-56.37-1.31-3.56-3.5-7.06-6.95-8.62a18.512,18.512,0,0,0-4.45-1.18c-4.26-.77-12.74-4.06-16.86-2.74-1.52.49-2.12,1.92-3.38,2.78C661.63,481.05,659.09,481.48,657.46,483.11Z" transform="translate(-91.39 -95.85)" fill="#f86d70"/>
    <path id="Caminho_286" data-name="Caminho 286" d="M664.35,648.46a29.49,29.49,0,0,1-25,14.51,19.7,19.7,0,0,1-8-1.47c-6.39-2.82-10-9.8-11.34-16.66s-.92-13.94-1.87-20.87c-.76-5.52-2.38-10.88-3.22-16.39-2.06-13.63,2-27.09,4.89-40.66.7-1.23,1.41-2.45,2.14-3.66a83.182,83.182,0,0,1,6.93-10c6-7.23,13.71-12.79,21.34-18.27h-8a1.37,1.37,0,0,1,2.17.95c.79,7,10.66,14,12.81,20.8,1.33,4.18,2.93,8.28,4,12.54a100.452,100.452,0,0,1,1.92,11q2.13,15.53,4.24,31C669.13,623.87,670.65,637.48,664.35,648.46Z" transform="translate(-91.39 -95.85)" opacity="0.1"/>
    <path id="Caminho_287" data-name="Caminho 287" d="M651.11,517.16l9.65-30.27c1.44-4.53,2.9-9.13,3.07-13.89s-1.08-9.75-4.41-13.15c-2.7-2.75-6.44-4.17-9.64-6.32-8-5.39-12-14.83-16.17-23.52s-9.66-17.78-18.76-21c-2.1-.74-5-.8-5.94,1.21a4.25,4.25,0,0,0-.15,2.62c.88,4.62,4.19,8.31,7.07,12,4.83,6.25,8.87,13.9,7.71,21.72-1.38,9.26-9.7,16.44-10.7,25.75-.44,4.1.61,8.21.6,12.34,0,2.56-.42,5.17.15,7.67A51.655,51.655,0,0,0,615.7,498a33.18,33.18,0,0,1,1.38,9.21l2.11,39.36c1.14,21.29-10.41,42-7.23,63,.84,5.51,2.46,10.87,3.22,16.39,1,6.93.53,14,1.87,20.87s5,13.84,11.34,16.66a19.7,19.7,0,0,0,8,1.47,29.49,29.49,0,0,0,25-14.51c6.3-11,4.78-24.59,3.06-37.13l-4.24-31a100.481,100.481,0,0,0-1.92-11c-1.06-4.26-2.66-8.36-4-12.54C650,545.11,646.79,530.74,651.11,517.16Z" transform="translate(-91.39 -95.85)" fill="#fbbebe"/>
    <rect id="Retângulo_22" data-name="Retângulo 22" width="223" height="142" rx="7.97" transform="translate(601.57 423.66)" fill="#3f3d56"/>
    <rect id="Retângulo_23" data-name="Retângulo 23" width="223" height="142" rx="7.97" transform="translate(601.57 423.66)" opacity="0.2"/>
    <circle id="Elipse_14" data-name="Elipse 14" cx="6" cy="6" r="6" transform="translate(706.57 488.66)" fill="#fff"/>
    <rect id="Retângulo_24" data-name="Retângulo 24" width="226" height="88" transform="translate(158.11 179.65)" fill="#171923"/>
    <rect id="Retângulo_25" data-name="Retângulo 25" width="371" height="88" rx="12" transform="translate(158.11 179.65)" fill="none" stroke="#3f3d56" stroke-miterlimit="10" stroke-width="9"/>
    <path id="Caminho_301" data-name="Caminho 301" d="M452.76,314.79A18.1,18.1,0,0,0,418.93,310a14.48,14.48,0,0,0,1.57,28.88h31.42A12.11,12.11,0,0,0,464,326.75a11.93,11.93,0,0,0-11.24-11.96Zm-13.89,7.13v9.18h-7.74v-9.18h-8.21L435,309.83l12.08,12.09Z" transform="translate(-91.39 -95.85)" fill="#fff"/>
  </g>
</svg>
